M48
; DRILL file {KiCad 9.0.0} date 2025-03-18T00:42:33+0200
; FORMAT={-:-/ absolute / inch / decimal}
; #@! TF.CreationDate,2025-03-18T00:42:33+02:00
; #@! TF.GenerationSoftware,Kicad,Pcbnew,9.0.0
; #@! TF.FileFunction,Plated,1,2,PTH
FMAT,2
INCH
; #@! TA.AperFunction,Plated,PTH,ViaDrill
T1C0.0118
; #@! TA.AperFunction,Plated,PTH,ComponentDrill
T2C0.0118
; #@! TA.AperFunction,Plated,PTH,ComponentDrill
T3C0.0130
; #@! TA.AperFunction,Plated,PTH,ComponentDrill
T4C0.0236
; #@! TA.AperFunction,Plated,PTH,ComponentDrill
T5C0.0394
%
G90
G05
T1
X6.2205Y-3.6909
X6.2205Y-3.7205
X6.2205Y-3.75
X6.25Y-3.6909
X6.25Y-3.7205
X6.25Y-3.75
X6.25Y-4.439
X6.2795Y-3.6909
X6.2795Y-3.7205
X6.2795Y-3.75
X6.2894Y-4.124
X6.2992Y-3.4646
X6.3091Y-3.5138
X6.3091Y-3.5531
X6.4075Y-4.2421
X6.4173Y-4.0256
X6.437Y-4.1831
X6.4862Y-4.439
X6.4961Y-4.0748
X6.5354Y-3.3563
X6.5551Y-3.5236
X6.5748Y-4.4488
X6.6043Y-3.3268
X6.6437Y-4.3701
X6.6535Y-3.1693
X6.6535Y-3.1988
X6.6535Y-3.2283
X6.6831Y-3.1693
X6.6831Y-3.1988
X6.6831Y-3.2283
X6.6929Y-3.6024
X6.7126Y-3.1693
X6.7126Y-3.1988
X6.7126Y-3.2283
X6.7618Y-4.3701
X6.8209Y-3.3366
X6.8209Y-3.5433
T2
X6.2815Y-3.9193
X6.2815Y-4.0138
X6.376Y-3.9193
X6.376Y-4.0138
T3
X6.6594Y-3.3937
X6.6594Y-3.4449
X6.7106Y-3.3937
X6.7106Y-3.4449
X6.7618Y-3.3937
X6.7618Y-3.4449
T5
X6.1504Y-3.0528
X6.1504Y-3.1528
X6.1504Y-3.2528
X6.1504Y-3.3528
X6.1504Y-3.7528
X6.1504Y-3.8528
X6.1504Y-3.9528
X6.1504Y-4.0528
X6.1504Y-4.1528
X6.1504Y-4.2528
X6.1504Y-4.3528
X6.1504Y-4.4528
X6.1504Y-4.5528
X6.1504Y-4.6528
X6.1504Y-4.7528
X6.1504Y-4.8528
X6.8504Y-4.6528
X6.8504Y-4.7528
X6.8504Y-4.8528
T4
G00X6.5327Y-2.9222
M15
G01X6.5327Y-2.8986
M16
G05
G00X6.5327Y-3.0967
M15
G01X6.5327Y-3.0533
M16
G05
G00X6.8728Y-2.9222
M15
G01X6.8728Y-2.8986
M16
G05
G00X6.8728Y-3.0967
M15
G01X6.8728Y-3.0533
M16
G05
M30
