%TF.GenerationSoftware,KiCad,Pcbnew,9.0.0*%
%TF.CreationDate,2025-03-18T00:42:33+02:00*%
%TF.ProjectId,haptic-bracelet,68617074-6963-42d6-9272-6163656c6574,rev?*%
%TF.SameCoordinates,Original*%
%TF.FileFunction,Soldermask,Top*%
%TF.FilePolarity,Negative*%
%FSLAX46Y46*%
G04 Gerber Fmt 4.6, Leading zero omitted, Abs format (unit mm)*
G04 Created by KiCad (PCBNEW 9.0.0) date 2025-03-18 00:42:33*
%MOMM*%
%LPD*%
G01*
G04 APERTURE LIST*
G04 Aperture macros list*
%AMRoundRect*
0 Rectangle with rounded corners*
0 $1 Rounding radius*
0 $2 $3 $4 $5 $6 $7 $8 $9 X,Y pos of 4 corners*
0 Add a 4 corners polygon primitive as box body*
4,1,4,$2,$3,$4,$5,$6,$7,$8,$9,$2,$3,0*
0 Add four circle primitives for the rounded corners*
1,1,$1+$1,$2,$3*
1,1,$1+$1,$4,$5*
1,1,$1+$1,$6,$7*
1,1,$1+$1,$8,$9*
0 Add four rect primitives between the rounded corners*
20,1,$1+$1,$2,$3,$4,$5,0*
20,1,$1+$1,$4,$5,$6,$7,0*
20,1,$1+$1,$6,$7,$8,$9,0*
20,1,$1+$1,$8,$9,$2,$3,0*%
%AMFreePoly0*
4,1,37,0.603843,0.796157,0.639018,0.796157,0.711114,0.766294,0.766294,0.711114,0.796157,0.639018,0.796157,0.603843,0.800000,0.600000,0.800000,-0.600000,0.796157,-0.603843,0.796157,-0.639018,0.766294,-0.711114,0.711114,-0.766294,0.639018,-0.796157,0.603843,-0.796157,0.600000,-0.800000,0.000000,-0.800000,0.000000,-0.796148,-0.078414,-0.796148,-0.232228,-0.765552,-0.377117,-0.705537,
-0.507515,-0.618408,-0.618408,-0.507515,-0.705537,-0.377117,-0.765552,-0.232228,-0.796148,-0.078414,-0.796148,0.078414,-0.765552,0.232228,-0.705537,0.377117,-0.618408,0.507515,-0.507515,0.618408,-0.377117,0.705537,-0.232228,0.765552,-0.078414,0.796148,0.000000,0.796148,0.000000,0.800000,0.600000,0.800000,0.603843,0.796157,0.603843,0.796157,$1*%
%AMFreePoly1*
4,1,37,0.000000,0.796148,0.078414,0.796148,0.232228,0.765552,0.377117,0.705537,0.507515,0.618408,0.618408,0.507515,0.705537,0.377117,0.765552,0.232228,0.796148,0.078414,0.796148,-0.078414,0.765552,-0.232228,0.705537,-0.377117,0.618408,-0.507515,0.507515,-0.618408,0.377117,-0.705537,0.232228,-0.765552,0.078414,-0.796148,0.000000,-0.796148,0.000000,-0.800000,-0.600000,-0.800000,
-0.603843,-0.796157,-0.639018,-0.796157,-0.711114,-0.766294,-0.766294,-0.711114,-0.796157,-0.639018,-0.796157,-0.603843,-0.800000,-0.600000,-0.800000,0.600000,-0.796157,0.603843,-0.796157,0.639018,-0.766294,0.711114,-0.711114,0.766294,-0.639018,0.796157,-0.603843,0.796157,-0.600000,0.800000,0.000000,0.800000,0.000000,0.796148,0.000000,0.796148,$1*%
G04 Aperture macros list end*
%ADD10RoundRect,0.218750X0.218750X0.256250X-0.218750X0.256250X-0.218750X-0.256250X0.218750X-0.256250X0*%
%ADD11R,1.000000X0.800000*%
%ADD12R,0.700000X1.500000*%
%ADD13RoundRect,0.150000X-0.150000X-0.625000X0.150000X-0.625000X0.150000X0.625000X-0.150000X0.625000X0*%
%ADD14RoundRect,0.250000X-0.350000X-0.650000X0.350000X-0.650000X0.350000X0.650000X-0.350000X0.650000X0*%
%ADD15RoundRect,0.150000X-0.512500X-0.150000X0.512500X-0.150000X0.512500X0.150000X-0.512500X0.150000X0*%
%ADD16RoundRect,0.135000X-0.135000X-0.185000X0.135000X-0.185000X0.135000X0.185000X-0.135000X0.185000X0*%
%ADD17RoundRect,0.135000X0.135000X0.185000X-0.135000X0.185000X-0.135000X-0.185000X0.135000X-0.185000X0*%
%ADD18RoundRect,0.140000X-0.140000X-0.170000X0.140000X-0.170000X0.140000X0.170000X-0.140000X0.170000X0*%
%ADD19RoundRect,0.225000X-0.225000X-0.250000X0.225000X-0.250000X0.225000X0.250000X-0.225000X0.250000X0*%
%ADD20RoundRect,0.250000X-0.650000X1.000000X-0.650000X-1.000000X0.650000X-1.000000X0.650000X1.000000X0*%
%ADD21RoundRect,0.140000X0.140000X0.170000X-0.140000X0.170000X-0.140000X-0.170000X0.140000X-0.170000X0*%
%ADD22RoundRect,0.225000X0.225000X0.250000X-0.225000X0.250000X-0.225000X-0.250000X0.225000X-0.250000X0*%
%ADD23RoundRect,0.225000X-0.250000X0.225000X-0.250000X-0.225000X0.250000X-0.225000X0.250000X0.225000X0*%
%ADD24R,1.000000X0.750000*%
%ADD25RoundRect,0.150000X0.512500X0.150000X-0.512500X0.150000X-0.512500X-0.150000X0.512500X-0.150000X0*%
%ADD26RoundRect,0.250000X0.650000X-1.000000X0.650000X1.000000X-0.650000X1.000000X-0.650000X-1.000000X0*%
%ADD27RoundRect,0.135000X0.185000X-0.135000X0.185000X0.135000X-0.185000X0.135000X-0.185000X-0.135000X0*%
%ADD28RoundRect,0.150000X0.150000X0.500000X-0.150000X0.500000X-0.150000X-0.500000X0.150000X-0.500000X0*%
%ADD29RoundRect,0.075000X0.075000X0.575000X-0.075000X0.575000X-0.075000X-0.575000X0.075000X-0.575000X0*%
%ADD30O,1.000000X2.100000*%
%ADD31O,1.000000X1.600000*%
%ADD32RoundRect,0.100000X0.100000X-0.675000X0.100000X0.675000X-0.100000X0.675000X-0.100000X-0.675000X0*%
%ADD33R,3.000000X3.000000*%
%ADD34RoundRect,0.243750X0.456250X-0.243750X0.456250X0.243750X-0.456250X0.243750X-0.456250X-0.243750X0*%
%ADD35RoundRect,0.225000X0.250000X-0.225000X0.250000X0.225000X-0.250000X0.225000X-0.250000X-0.225000X0*%
%ADD36RoundRect,0.218750X-0.256250X0.218750X-0.256250X-0.218750X0.256250X-0.218750X0.256250X0.218750X0*%
%ADD37RoundRect,0.150000X-0.150000X0.587500X-0.150000X-0.587500X0.150000X-0.587500X0.150000X0.587500X0*%
%ADD38RoundRect,0.135000X-0.185000X0.135000X-0.185000X-0.135000X0.185000X-0.135000X0.185000X0.135000X0*%
%ADD39RoundRect,0.150000X0.625000X-0.150000X0.625000X0.150000X-0.625000X0.150000X-0.625000X-0.150000X0*%
%ADD40RoundRect,0.250000X0.650000X-0.350000X0.650000X0.350000X-0.650000X0.350000X-0.650000X-0.350000X0*%
%ADD41RoundRect,0.140000X0.170000X-0.140000X0.170000X0.140000X-0.170000X0.140000X-0.170000X-0.140000X0*%
%ADD42R,3.100000X2.400000*%
%ADD43RoundRect,0.070000X-0.250000X1.100000X-0.250000X-1.100000X0.250000X-1.100000X0.250000X1.100000X0*%
%ADD44C,0.770000*%
%ADD45FreePoly0,180.000000*%
%ADD46C,1.600000*%
%ADD47FreePoly1,180.000000*%
G04 APERTURE END LIST*
D10*
%TO.C,D3*%
X161537500Y-108000000D03*
X159962500Y-108000000D03*
%TD*%
D11*
%TO.C,SW2*%
X164150000Y-75605000D03*
X164150000Y-73395000D03*
X156850000Y-75605000D03*
X156850000Y-73395000D03*
D12*
X162750000Y-76255000D03*
X159750000Y-76255000D03*
X158250000Y-76255000D03*
%TD*%
D13*
%TO.C,J4*%
X166250000Y-92750000D03*
X167250000Y-92750000D03*
D14*
X164950000Y-96625000D03*
X168550000Y-96625000D03*
%TD*%
D15*
%TO.C,U4*%
X159112500Y-85300000D03*
X159112500Y-86250000D03*
X159112500Y-87200000D03*
X161387500Y-87200000D03*
X161387500Y-86250000D03*
X161387500Y-85300000D03*
%TD*%
D16*
%TO.C,R6*%
X166990000Y-80500000D03*
X168010000Y-80500000D03*
%TD*%
%TO.C,R5*%
X164490000Y-89250000D03*
X165510000Y-89250000D03*
%TD*%
D17*
%TO.C,R12*%
X166760000Y-84250000D03*
X165740000Y-84250000D03*
%TD*%
D18*
%TO.C,C2*%
X166020000Y-90500000D03*
X166980000Y-90500000D03*
%TD*%
D19*
%TO.C,C11*%
X158475000Y-109750000D03*
X160025000Y-109750000D03*
%TD*%
D17*
%TO.C,R2*%
X174760000Y-82500000D03*
X173740000Y-82500000D03*
%TD*%
D20*
%TO.C,D8*%
X159500000Y-79000000D03*
X159500000Y-83000000D03*
%TD*%
D17*
%TO.C,R15*%
X168760000Y-113000000D03*
X167740000Y-113000000D03*
%TD*%
D19*
%TO.C,C3*%
X163000000Y-90500000D03*
X164550000Y-90500000D03*
%TD*%
D17*
%TO.C,R7*%
X173010000Y-80500000D03*
X171990000Y-80500000D03*
%TD*%
D21*
%TO.C,C6*%
X163230000Y-96250000D03*
X162270000Y-96250000D03*
%TD*%
D13*
%TO.C,J2*%
X172250000Y-92750000D03*
X173250000Y-92750000D03*
D14*
X170950000Y-96625000D03*
X174550000Y-96625000D03*
%TD*%
D17*
%TO.C,R1*%
X172510000Y-82000000D03*
X171490000Y-82000000D03*
%TD*%
D22*
%TO.C,C8*%
X162050000Y-94500000D03*
X160500000Y-94500000D03*
%TD*%
D23*
%TO.C,C4*%
X166500000Y-110725000D03*
X166500000Y-112275000D03*
%TD*%
D24*
%TO.C,SW1*%
X164750000Y-115375000D03*
X158750000Y-115375000D03*
X164750000Y-111625000D03*
X158750000Y-111625000D03*
%TD*%
D25*
%TO.C,U3*%
X161387500Y-90700000D03*
X161387500Y-89750000D03*
X161387500Y-88800000D03*
X159112500Y-88800000D03*
X159112500Y-89750000D03*
X159112500Y-90700000D03*
%TD*%
D26*
%TO.C,D9*%
X156250000Y-92250000D03*
X156250000Y-88250000D03*
%TD*%
D27*
%TO.C,R4*%
X162850000Y-88160000D03*
X162850000Y-87140000D03*
%TD*%
D21*
%TO.C,C10*%
X167980000Y-82000000D03*
X167020000Y-82000000D03*
%TD*%
D28*
%TO.C,J5*%
X173450000Y-78745000D03*
X172650000Y-78745000D03*
D29*
X171500000Y-78745000D03*
X170500000Y-78745000D03*
X170000000Y-78745000D03*
X169000000Y-78745000D03*
D28*
X167850000Y-78745000D03*
X167050000Y-78745000D03*
X167050000Y-78745000D03*
X167850000Y-78745000D03*
D29*
X168500000Y-78745000D03*
X169500000Y-78745000D03*
X171000000Y-78745000D03*
X172000000Y-78745000D03*
D28*
X172650000Y-78745000D03*
X173450000Y-78745000D03*
D30*
X174570000Y-78105000D03*
D31*
X174570000Y-73925000D03*
D30*
X165930000Y-78105000D03*
D31*
X165930000Y-73925000D03*
%TD*%
D17*
%TO.C,R8*%
X168760000Y-115000000D03*
X167740000Y-115000000D03*
%TD*%
D32*
%TO.C,U2*%
X158475000Y-103625000D03*
X159125000Y-103625000D03*
X159775000Y-103625000D03*
X160425000Y-103625000D03*
X161075000Y-103625000D03*
X161725000Y-103625000D03*
X162375000Y-103625000D03*
X163025000Y-103625000D03*
X163025000Y-97875000D03*
X162375000Y-97875000D03*
X161725000Y-97875000D03*
X161075000Y-97875000D03*
X160425000Y-97875000D03*
X159775000Y-97875000D03*
X159125000Y-97875000D03*
X158475000Y-97875000D03*
D33*
X160750000Y-100750000D03*
%TD*%
D27*
%TO.C,R17*%
X162500000Y-110260000D03*
X162500000Y-109240000D03*
%TD*%
D16*
%TO.C,R9*%
X158480000Y-106250000D03*
X159500000Y-106250000D03*
%TD*%
D34*
%TO.C,D1*%
X174250000Y-89187500D03*
X174250000Y-87312500D03*
%TD*%
D35*
%TO.C,C1*%
X166500000Y-115275000D03*
X166500000Y-113725000D03*
%TD*%
D17*
%TO.C,R14*%
X168760000Y-114000000D03*
X167740000Y-114000000D03*
%TD*%
D18*
%TO.C,C5*%
X158290000Y-96250000D03*
X159250000Y-96250000D03*
%TD*%
D27*
%TO.C,R11*%
X174000000Y-81510000D03*
X174000000Y-80490000D03*
%TD*%
D36*
%TO.C,D2*%
X174250000Y-83962500D03*
X174250000Y-85537500D03*
%TD*%
D37*
%TO.C,Q2*%
X166950000Y-85812500D03*
X165050000Y-85812500D03*
X166000000Y-87687500D03*
%TD*%
D38*
%TO.C,R18*%
X158500000Y-107490000D03*
X158500000Y-108510000D03*
%TD*%
D39*
%TO.C,J6*%
X170500000Y-114500000D03*
X170500000Y-113500000D03*
X170500000Y-112500000D03*
X170500000Y-111500000D03*
X170500000Y-110500000D03*
D40*
X174375000Y-115800000D03*
X174375000Y-109200000D03*
%TD*%
D16*
%TO.C,R13*%
X167740000Y-112000000D03*
X168760000Y-112000000D03*
%TD*%
D26*
%TO.C,D7*%
X163000000Y-83000000D03*
X163000000Y-79000000D03*
%TD*%
D27*
%TO.C,R16*%
X161250000Y-110260000D03*
X161250000Y-109240000D03*
%TD*%
D38*
%TO.C,R10*%
X164000000Y-102990000D03*
X164000000Y-104010000D03*
%TD*%
D16*
%TO.C,R3*%
X173740000Y-90500000D03*
X174760000Y-90500000D03*
%TD*%
D21*
%TO.C,C7*%
X161230000Y-96250000D03*
X160270000Y-96250000D03*
%TD*%
D41*
%TO.C,C9*%
X175000000Y-81480000D03*
X175000000Y-80520000D03*
%TD*%
D42*
%TO.C,U1*%
X170450000Y-86850000D03*
D43*
X172355000Y-83975000D03*
X171085000Y-83975000D03*
X169815000Y-83975000D03*
X168545000Y-83975000D03*
X168545000Y-89725000D03*
X169815000Y-89725000D03*
X171085000Y-89725000D03*
X172355000Y-89725000D03*
D44*
X171750000Y-86200000D03*
X170450000Y-86200000D03*
X169150000Y-86200000D03*
X171750000Y-87500000D03*
X170450000Y-87500000D03*
X169150000Y-87500000D03*
%TD*%
D45*
%TO.C,A1*%
X174000000Y-118180000D03*
D46*
X174000000Y-120720000D03*
X174000000Y-123260000D03*
X156220000Y-123260000D03*
X156220000Y-120720000D03*
D47*
X156220000Y-118180000D03*
D46*
X156220000Y-115640000D03*
X156220000Y-113100000D03*
X156220000Y-110560000D03*
X156220000Y-108020000D03*
D47*
X156220000Y-105480000D03*
D46*
X156220000Y-102940000D03*
X156220000Y-100400000D03*
X156220000Y-97860000D03*
X156220000Y-95320000D03*
X156220000Y-85160000D03*
X156220000Y-82620000D03*
D47*
X156220000Y-80080000D03*
D46*
X156220000Y-77540000D03*
%TD*%
M02*
