M48
; DRILL file {KiCad 9.0.0} date 2025-03-25T16:41:30+0200
; FORMAT={-:-/ absolute / inch / decimal}
; #@! TF.CreationDate,2025-03-25T16:41:30+02:00
; #@! TF.GenerationSoftware,Kicad,Pcbnew,9.0.0
; #@! TF.FileFunction,Plated,1,2,PTH
FMAT,2
INCH
; #@! TA.AperFunction,Plated,PTH,ComponentDrill
T1C0.0295
; #@! TA.AperFunction,Plated,PTH,ComponentDrill
T2C0.0354
; #@! TA.AperFunction,Plated,PTH,ComponentDrill
T3C0.0394
; #@! TA.AperFunction,Plated,PTH,ComponentDrill
T4C0.0433
; #@! TA.AperFunction,Plated,PTH,ComponentDrill
T5C0.0512
%
G90
G05
T1
X5.1476Y-4.2323
X5.2264Y-4.2323
X5.3051Y-4.2323
X5.3839Y-4.2323
X5.4626Y-4.2323
T2
X4.872Y-3.6748
X4.872Y-4.0748
X5.128Y-3.8158
X5.128Y-3.9143
X5.128Y-4.0127
X5.3642Y-3.8158
X5.3642Y-3.9143
X5.3642Y-4.0127
X5.6201Y-3.6681
X5.6201Y-4.0681
T3
X5.7776Y-2.9906
X5.7776Y-3.0906
X5.7776Y-3.1906
T4
X4.2894Y-3.0374
X4.2894Y-3.2146
X4.3278Y-3.8248
X4.3278Y-4.002
X4.5837Y-3.8248
X4.5837Y-4.002
X4.624Y-3.0374
X4.624Y-3.2146
T5
X5.8858Y-3.7303
X5.8858Y-3.9272
X5.8858Y-4.124
M30
