%TF.GenerationSoftware,KiCad,Pcbnew,9.0.0*%
%TF.CreationDate,2025-03-25T16:41:30+02:00*%
%TF.ProjectId,aux,6175782e-6b69-4636-9164-5f7063625858,rev?*%
%TF.SameCoordinates,Original*%
%TF.FileFunction,Copper,L1,Top*%
%TF.FilePolarity,Positive*%
%FSLAX46Y46*%
G04 Gerber Fmt 4.6, Leading zero omitted, Abs format (unit mm)*
G04 Created by KiCad (PCBNEW 9.0.0) date 2025-03-25 16:41:30*
%MOMM*%
%LPD*%
G01*
G04 APERTURE LIST*
G04 Aperture macros list*
%AMRoundRect*
0 Rectangle with rounded corners*
0 $1 Rounding radius*
0 $2 $3 $4 $5 $6 $7 $8 $9 X,Y pos of 4 corners*
0 Add a 4 corners polygon primitive as box body*
4,1,4,$2,$3,$4,$5,$6,$7,$8,$9,$2,$3,0*
0 Add four circle primitives for the rounded corners*
1,1,$1+$1,$2,$3*
1,1,$1+$1,$4,$5*
1,1,$1+$1,$6,$7*
1,1,$1+$1,$8,$9*
0 Add four rect primitives between the rounded corners*
20,1,$1+$1,$2,$3,$4,$5,0*
20,1,$1+$1,$4,$5,$6,$7,0*
20,1,$1+$1,$6,$7,$8,$9,0*
20,1,$1+$1,$8,$9,$2,$3,0*%
G04 Aperture macros list end*
%TA.AperFunction,ComponentPad*%
%ADD10R,1.800000X1.800000*%
%TD*%
%TA.AperFunction,ComponentPad*%
%ADD11O,1.800000X1.800000*%
%TD*%
%TA.AperFunction,ComponentPad*%
%ADD12C,2.000000*%
%TD*%
%TA.AperFunction,ComponentPad*%
%ADD13RoundRect,0.250000X-0.350000X-0.625000X0.350000X-0.625000X0.350000X0.625000X-0.350000X0.625000X0*%
%TD*%
%TA.AperFunction,ComponentPad*%
%ADD14O,1.200000X1.750000*%
%TD*%
%TA.AperFunction,ComponentPad*%
%ADD15C,1.800000*%
%TD*%
%TA.AperFunction,ComponentPad*%
%ADD16R,1.700000X1.700000*%
%TD*%
%TA.AperFunction,ComponentPad*%
%ADD17O,1.700000X1.700000*%
%TD*%
%TA.AperFunction,ComponentPad*%
%ADD18C,2.340000*%
%TD*%
%TA.AperFunction,Conductor*%
%ADD19C,1.000000*%
%TD*%
G04 APERTURE END LIST*
D10*
%TO.P,D1,1,K*%
%TO.N,AUX_DETECT*%
X123750000Y-93340000D03*
D11*
%TO.P,D1,2,A*%
%TO.N,Net-(D1-A)*%
X123750000Y-103500000D03*
%TD*%
D12*
%TO.P,SW2,1,1*%
%TO.N,AUX_DIGITAL*%
X108950000Y-77150000D03*
X117450000Y-77150000D03*
%TO.P,SW2,2,2*%
%TO.N,AUX_DETECT*%
X108950000Y-81650000D03*
X117450000Y-81650000D03*
%TD*%
D13*
%TO.P,J5,1,Pin_1*%
%TO.N,Net-(D1-A)*%
X130750000Y-107500000D03*
D14*
%TO.P,J5,2,Pin_2*%
%TO.N,AUX_DETECT*%
X132750000Y-107500000D03*
%TO.P,J5,3,Pin_3*%
%TO.N,AUX_DIGITAL*%
X134750000Y-107500000D03*
%TO.P,J5,4,Pin_4*%
%TO.N,AUX_ANALOG*%
X136750000Y-107500000D03*
%TO.P,J5,5,Pin_5*%
%TO.N,GND*%
X138750000Y-107500000D03*
%TD*%
D10*
%TO.P,SW3,1,1*%
%TO.N,AUX_DIGITAL*%
X130250000Y-101922500D03*
D15*
%TO.P,SW3,2,2*%
%TO.N,AUX_DETECT*%
X130250000Y-99422500D03*
%TO.P,SW3,3*%
%TO.N,N/C*%
X130250000Y-96922500D03*
%TO.P,SW3,4*%
X136250000Y-101922500D03*
%TO.P,SW3,5*%
X136250000Y-99422500D03*
%TO.P,SW3,6*%
X136250000Y-96922500D03*
%TD*%
D10*
%TO.P,D4,1,K*%
%TO.N,AUX_DIGITAL*%
X142750000Y-103330000D03*
D11*
%TO.P,D4,2,A*%
%TO.N,Net-(D4-A)*%
X142750000Y-93170000D03*
%TD*%
D12*
%TO.P,SW1,1,1*%
%TO.N,AUX_DIGITAL*%
X116425000Y-101650000D03*
X109925000Y-101650000D03*
%TO.P,SW1,2,2*%
%TO.N,AUX_DETECT*%
X116425000Y-97150000D03*
X109925000Y-97150000D03*
%TD*%
D16*
%TO.P,J1,1,Pin_1*%
%TO.N,GND*%
X146750000Y-81040000D03*
D17*
%TO.P,J1,2,Pin_2*%
%TO.N,AUX_DETECT*%
X146750000Y-78500000D03*
%TO.P,J1,3,Pin_3*%
%TO.N,Net-(D4-A)*%
X146750000Y-75960000D03*
%TD*%
D18*
%TO.P,RV1,1,1*%
%TO.N,AUX_DETECT*%
X149500000Y-104750000D03*
%TO.P,RV1,2,2*%
%TO.N,AUX_ANALOG*%
X149500000Y-99750000D03*
%TO.P,RV1,3,3*%
%TO.N,GND*%
X149500000Y-94750000D03*
%TD*%
D19*
%TO.N,AUX_ANALOG*%
X149500000Y-111500000D02*
X153000000Y-108000000D01*
X136750000Y-110000000D02*
X138250000Y-111500000D01*
X138250000Y-111500000D02*
X149500000Y-111500000D01*
X153000000Y-108000000D02*
X153000000Y-103250000D01*
X153000000Y-103250000D02*
X149500000Y-99750000D01*
X136750000Y-107500000D02*
X136750000Y-110000000D01*
%TO.N,Net-(D1-A)*%
X127750000Y-107500000D02*
X123750000Y-103500000D01*
X130750000Y-107500000D02*
X127750000Y-107500000D01*
%TO.N,Net-(D4-A)*%
X148210000Y-75960000D02*
X146750000Y-75960000D01*
X150750000Y-85170000D02*
X150750000Y-84000000D01*
X150750000Y-78500000D02*
X148210000Y-75960000D01*
X142750000Y-93170000D02*
X150750000Y-85170000D01*
X150750000Y-84000000D02*
X150750000Y-78500000D01*
%TO.N,AUX_DIGITAL*%
X141330000Y-104750000D02*
X142750000Y-103330000D01*
X130250000Y-101922500D02*
X130797500Y-101922500D01*
X134750000Y-105875000D02*
X135875000Y-104750000D01*
X117450000Y-77150000D02*
X113200000Y-81400000D01*
X113200000Y-104925000D02*
X113200000Y-104875000D01*
X113200000Y-105000000D02*
X113200000Y-106950000D01*
X113200000Y-106950000D02*
X117750000Y-111500000D01*
X134750000Y-109750000D02*
X134750000Y-107500000D01*
X113200000Y-104875000D02*
X116425000Y-101650000D01*
X135875000Y-104750000D02*
X141330000Y-104750000D01*
X109925000Y-101650000D02*
X109850000Y-101650000D01*
X134750000Y-107500000D02*
X134750000Y-105875000D01*
X133000000Y-111500000D02*
X134750000Y-109750000D01*
X113200000Y-81400000D02*
X113200000Y-105000000D01*
X113200000Y-104925000D02*
X109925000Y-101650000D01*
X108950000Y-77150000D02*
X113200000Y-81400000D01*
X113200000Y-105000000D02*
X113200000Y-104925000D01*
X130797500Y-101922500D02*
X134750000Y-105875000D01*
X117750000Y-111500000D02*
X133000000Y-111500000D01*
%TD*%
%TA.AperFunction,Conductor*%
%TO.N,AUX_DETECT*%
G36*
X125693039Y-66520185D02*
G01*
X125738794Y-66572989D01*
X125750000Y-66624500D01*
X125750000Y-90500000D01*
X140250000Y-90500000D01*
X140250000Y-66624500D01*
X140269685Y-66557461D01*
X140322489Y-66511706D01*
X140374000Y-66500500D01*
X154334108Y-66500500D01*
X154395572Y-66500500D01*
X154404418Y-66500816D01*
X154604561Y-66515130D01*
X154622063Y-66517647D01*
X154813797Y-66559355D01*
X154830755Y-66564334D01*
X154992064Y-66624500D01*
X155014609Y-66632909D01*
X155030701Y-66640259D01*
X155202904Y-66734288D01*
X155217784Y-66743849D01*
X155374867Y-66861441D01*
X155388237Y-66873027D01*
X155526972Y-67011762D01*
X155538558Y-67025132D01*
X155656146Y-67182210D01*
X155665711Y-67197095D01*
X155759740Y-67369298D01*
X155767090Y-67385390D01*
X155835662Y-67569236D01*
X155840646Y-67586212D01*
X155882351Y-67777931D01*
X155884869Y-67795443D01*
X155899181Y-67995557D01*
X155899497Y-68004443D01*
X155885309Y-112125996D01*
X155885286Y-112126362D01*
X155885286Y-112195572D01*
X155884970Y-112204419D01*
X155870655Y-112404556D01*
X155868137Y-112422067D01*
X155826432Y-112613785D01*
X155821448Y-112630761D01*
X155752877Y-112814605D01*
X155745527Y-112830698D01*
X155651497Y-113002900D01*
X155641932Y-113017784D01*
X155524348Y-113174857D01*
X155512762Y-113188228D01*
X155374017Y-113326972D01*
X155360646Y-113338557D01*
X155203581Y-113456134D01*
X155188697Y-113465700D01*
X155016483Y-113559734D01*
X155000390Y-113567083D01*
X154816552Y-113635650D01*
X154799577Y-113640634D01*
X154607858Y-113682339D01*
X154590345Y-113684857D01*
X154390221Y-113699169D01*
X154381376Y-113699485D01*
X105124000Y-113699493D01*
X105056961Y-113679808D01*
X105011206Y-113627004D01*
X105000000Y-113575493D01*
X105000000Y-98503919D01*
X109278184Y-98503919D01*
X109349197Y-98540102D01*
X109573752Y-98613065D01*
X109573751Y-98613065D01*
X109806948Y-98650000D01*
X110043052Y-98650000D01*
X110276247Y-98613065D01*
X110500797Y-98540104D01*
X110571814Y-98503919D01*
X109925001Y-97857106D01*
X109925000Y-97857106D01*
X109278184Y-98503919D01*
X105000000Y-98503919D01*
X105000000Y-97031947D01*
X108425000Y-97031947D01*
X108425000Y-97268052D01*
X108461934Y-97501247D01*
X108534898Y-97725805D01*
X108571078Y-97796813D01*
X108571079Y-97796814D01*
X109217894Y-97150000D01*
X109145485Y-97077591D01*
X109375000Y-97077591D01*
X109375000Y-97222409D01*
X109412482Y-97362292D01*
X109484890Y-97487708D01*
X109587292Y-97590110D01*
X109712708Y-97662518D01*
X109852591Y-97700000D01*
X109997409Y-97700000D01*
X110137292Y-97662518D01*
X110262708Y-97590110D01*
X110365110Y-97487708D01*
X110437518Y-97362292D01*
X110475000Y-97222409D01*
X110475000Y-97149999D01*
X110632106Y-97149999D01*
X110632106Y-97150000D01*
X111278919Y-97796814D01*
X111315104Y-97725797D01*
X111388065Y-97501247D01*
X111425000Y-97268052D01*
X111425000Y-97031947D01*
X111388065Y-96798752D01*
X111315102Y-96574197D01*
X111278919Y-96503184D01*
X110632106Y-97149999D01*
X110475000Y-97149999D01*
X110475000Y-97077591D01*
X110437518Y-96937708D01*
X110365110Y-96812292D01*
X110262708Y-96709890D01*
X110137292Y-96637482D01*
X109997409Y-96600000D01*
X109852591Y-96600000D01*
X109712708Y-96637482D01*
X109587292Y-96709890D01*
X109484890Y-96812292D01*
X109412482Y-96937708D01*
X109375000Y-97077591D01*
X109145485Y-97077591D01*
X108571078Y-96503184D01*
X108534894Y-96574202D01*
X108534894Y-96574203D01*
X108461934Y-96798751D01*
X108425000Y-97031947D01*
X105000000Y-97031947D01*
X105000000Y-95796078D01*
X109278184Y-95796078D01*
X109925000Y-96442894D01*
X109925001Y-96442894D01*
X110571814Y-95796079D01*
X110571813Y-95796078D01*
X110500805Y-95759898D01*
X110276247Y-95686934D01*
X110276248Y-95686934D01*
X110043052Y-95650000D01*
X109806948Y-95650000D01*
X109573751Y-95686934D01*
X109349203Y-95759894D01*
X109349202Y-95759894D01*
X109278184Y-95796078D01*
X105000000Y-95796078D01*
X105000000Y-83003919D01*
X108303184Y-83003919D01*
X108374197Y-83040102D01*
X108598752Y-83113065D01*
X108598751Y-83113065D01*
X108831948Y-83150000D01*
X109068052Y-83150000D01*
X109301247Y-83113065D01*
X109525797Y-83040104D01*
X109596814Y-83003919D01*
X108950001Y-82357106D01*
X108950000Y-82357106D01*
X108303184Y-83003919D01*
X105000000Y-83003919D01*
X105000000Y-81531947D01*
X107450000Y-81531947D01*
X107450000Y-81768052D01*
X107486934Y-82001247D01*
X107559898Y-82225805D01*
X107596078Y-82296813D01*
X107596079Y-82296814D01*
X108242894Y-81650000D01*
X108170485Y-81577591D01*
X108400000Y-81577591D01*
X108400000Y-81722409D01*
X108437482Y-81862292D01*
X108509890Y-81987708D01*
X108612292Y-82090110D01*
X108737708Y-82162518D01*
X108877591Y-82200000D01*
X109022409Y-82200000D01*
X109162292Y-82162518D01*
X109287708Y-82090110D01*
X109390110Y-81987708D01*
X109462518Y-81862292D01*
X109500000Y-81722409D01*
X109500000Y-81649999D01*
X109657106Y-81649999D01*
X109657106Y-81650000D01*
X110303919Y-82296814D01*
X110340104Y-82225797D01*
X110413065Y-82001247D01*
X110450000Y-81768052D01*
X110450000Y-81531947D01*
X110413065Y-81298752D01*
X110340102Y-81074197D01*
X110303919Y-81003184D01*
X109657106Y-81649999D01*
X109500000Y-81649999D01*
X109500000Y-81577591D01*
X109462518Y-81437708D01*
X109390110Y-81312292D01*
X109287708Y-81209890D01*
X109162292Y-81137482D01*
X109022409Y-81100000D01*
X108877591Y-81100000D01*
X108737708Y-81137482D01*
X108612292Y-81209890D01*
X108509890Y-81312292D01*
X108437482Y-81437708D01*
X108400000Y-81577591D01*
X108170485Y-81577591D01*
X107596078Y-81003184D01*
X107559894Y-81074202D01*
X107559894Y-81074203D01*
X107486934Y-81298751D01*
X107450000Y-81531947D01*
X105000000Y-81531947D01*
X105000000Y-80296078D01*
X108303184Y-80296078D01*
X108950000Y-80942894D01*
X108950001Y-80942894D01*
X109596814Y-80296079D01*
X109596813Y-80296078D01*
X109525805Y-80259898D01*
X109301247Y-80186934D01*
X109301248Y-80186934D01*
X109068052Y-80150000D01*
X108831948Y-80150000D01*
X108598751Y-80186934D01*
X108374203Y-80259894D01*
X108374202Y-80259894D01*
X108303184Y-80296078D01*
X105000000Y-80296078D01*
X105000000Y-77047648D01*
X107649500Y-77047648D01*
X107649500Y-77252351D01*
X107681522Y-77454534D01*
X107744781Y-77649223D01*
X107837715Y-77831613D01*
X107958028Y-77997213D01*
X108102786Y-78141971D01*
X108257749Y-78254556D01*
X108268390Y-78262287D01*
X108356158Y-78307007D01*
X108450776Y-78355218D01*
X108450778Y-78355218D01*
X108450781Y-78355220D01*
X108555137Y-78389127D01*
X108645465Y-78418477D01*
X108744571Y-78434174D01*
X108847648Y-78450500D01*
X108847649Y-78450500D01*
X109052344Y-78450500D01*
X109052352Y-78450500D01*
X109052359Y-78450498D01*
X109056592Y-78450165D01*
X109124972Y-78464518D01*
X109154022Y-78486100D01*
X112363181Y-81695259D01*
X112396666Y-81756582D01*
X112399500Y-81782940D01*
X112399500Y-102693060D01*
X112379815Y-102760099D01*
X112327011Y-102805854D01*
X112257853Y-102815798D01*
X112194297Y-102786773D01*
X112187819Y-102780741D01*
X111261100Y-101854022D01*
X111227615Y-101792699D01*
X111225165Y-101756592D01*
X111225498Y-101752359D01*
X111225500Y-101752352D01*
X111225500Y-101547648D01*
X111208992Y-101443421D01*
X111193477Y-101345465D01*
X111146191Y-101199934D01*
X111130220Y-101150781D01*
X111130218Y-101150778D01*
X111130218Y-101150776D01*
X111057308Y-101007684D01*
X111037287Y-100968390D01*
X111025747Y-100952506D01*
X110916971Y-100802786D01*
X110772213Y-100658028D01*
X110606613Y-100537715D01*
X110606612Y-100537714D01*
X110606610Y-100537713D01*
X110549653Y-100508691D01*
X110424223Y-100444781D01*
X110229534Y-100381522D01*
X110054995Y-100353878D01*
X110027352Y-100349500D01*
X109822648Y-100349500D01*
X109798329Y-100353351D01*
X109620465Y-100381522D01*
X109425776Y-100444781D01*
X109243386Y-100537715D01*
X109077786Y-100658028D01*
X108933028Y-100802786D01*
X108812715Y-100968386D01*
X108719781Y-101150776D01*
X108656522Y-101345465D01*
X108624500Y-101547648D01*
X108624500Y-101752351D01*
X108656522Y-101954534D01*
X108719781Y-102149223D01*
X108774816Y-102257234D01*
X108811413Y-102329059D01*
X108812715Y-102331613D01*
X108933028Y-102497213D01*
X109077786Y-102641971D01*
X109212318Y-102739712D01*
X109243390Y-102762287D01*
X109328895Y-102805854D01*
X109425776Y-102855218D01*
X109425778Y-102855218D01*
X109425781Y-102855220D01*
X109530137Y-102889127D01*
X109620465Y-102918477D01*
X109721557Y-102934488D01*
X109822648Y-102950500D01*
X109822649Y-102950500D01*
X110027344Y-102950500D01*
X110027352Y-102950500D01*
X110027359Y-102950498D01*
X110031592Y-102950165D01*
X110099972Y-102964518D01*
X110129022Y-102986100D01*
X112363181Y-105220259D01*
X112396666Y-105281582D01*
X112399500Y-105307940D01*
X112399500Y-107028846D01*
X112430261Y-107183489D01*
X112430264Y-107183501D01*
X112490602Y-107329172D01*
X112490609Y-107329185D01*
X112578210Y-107460288D01*
X112578213Y-107460292D01*
X117239707Y-112121786D01*
X117239711Y-112121789D01*
X117370814Y-112209390D01*
X117370818Y-112209392D01*
X117370821Y-112209394D01*
X117516503Y-112269738D01*
X117671153Y-112300499D01*
X117671157Y-112300500D01*
X117671158Y-112300500D01*
X133078844Y-112300500D01*
X133078845Y-112300499D01*
X133233497Y-112269737D01*
X133379179Y-112209394D01*
X133510289Y-112121789D01*
X135371789Y-110260289D01*
X135459394Y-110129179D01*
X135519738Y-109983497D01*
X135550500Y-109828842D01*
X135550500Y-109671157D01*
X135550500Y-108220207D01*
X135553050Y-108211521D01*
X135551762Y-108202560D01*
X135559939Y-108172755D01*
X135615892Y-108037670D01*
X135615894Y-108037666D01*
X135628383Y-107974882D01*
X135660768Y-107912971D01*
X135721483Y-107878397D01*
X135791253Y-107882136D01*
X135847925Y-107923003D01*
X135871617Y-107974882D01*
X135884104Y-108037658D01*
X135884107Y-108037670D01*
X135940061Y-108172755D01*
X135949500Y-108220207D01*
X135949500Y-110078846D01*
X135980261Y-110233489D01*
X135980264Y-110233501D01*
X136040602Y-110379172D01*
X136040609Y-110379185D01*
X136128210Y-110510288D01*
X136128213Y-110510292D01*
X137628211Y-112010289D01*
X137739708Y-112121786D01*
X137739712Y-112121790D01*
X137850135Y-112195572D01*
X137870821Y-112209394D01*
X137973833Y-112252062D01*
X138016502Y-112269737D01*
X138171152Y-112300499D01*
X138171155Y-112300500D01*
X138171157Y-112300500D01*
X149578844Y-112300500D01*
X149578845Y-112300499D01*
X149733497Y-112269737D01*
X149879179Y-112209394D01*
X150010289Y-112121789D01*
X153621788Y-108510290D01*
X153621789Y-108510289D01*
X153709394Y-108379179D01*
X153754726Y-108269737D01*
X153769737Y-108233498D01*
X153800500Y-108078843D01*
X153800500Y-107921158D01*
X153800500Y-103171158D01*
X153798145Y-103159318D01*
X153795200Y-103144507D01*
X153769738Y-103016507D01*
X153769737Y-103016506D01*
X153769737Y-103016502D01*
X153741884Y-102949260D01*
X153709394Y-102870821D01*
X153709392Y-102870819D01*
X153709392Y-102870817D01*
X153621790Y-102739712D01*
X153575138Y-102693060D01*
X153510289Y-102628211D01*
X150984726Y-100102648D01*
X150951241Y-100041325D01*
X150949934Y-99995574D01*
X150970500Y-99865731D01*
X150970500Y-99634269D01*
X150934291Y-99405657D01*
X150898528Y-99295590D01*
X150862767Y-99185526D01*
X150862766Y-99185523D01*
X150800036Y-99062410D01*
X150757684Y-98979290D01*
X150689243Y-98885089D01*
X150621640Y-98792040D01*
X150621636Y-98792035D01*
X150457964Y-98628363D01*
X150457959Y-98628359D01*
X150270713Y-98492318D01*
X150270712Y-98492317D01*
X150270710Y-98492316D01*
X150204638Y-98458650D01*
X150064476Y-98387233D01*
X150064473Y-98387232D01*
X149844344Y-98315709D01*
X149730037Y-98297604D01*
X149615731Y-98279500D01*
X149384269Y-98279500D01*
X149315254Y-98290431D01*
X149155655Y-98315709D01*
X148935526Y-98387232D01*
X148935523Y-98387233D01*
X148729286Y-98492318D01*
X148542040Y-98628359D01*
X148542035Y-98628363D01*
X148378363Y-98792035D01*
X148378359Y-98792040D01*
X148242318Y-98979286D01*
X148137233Y-99185523D01*
X148137232Y-99185526D01*
X148065709Y-99405655D01*
X148065709Y-99405657D01*
X148029500Y-99634269D01*
X148029500Y-99865731D01*
X148044417Y-99959911D01*
X148065709Y-100094344D01*
X148137232Y-100314473D01*
X148137233Y-100314476D01*
X148242318Y-100520713D01*
X148378359Y-100707959D01*
X148378363Y-100707964D01*
X148542035Y-100871636D01*
X148542040Y-100871640D01*
X148653348Y-100952509D01*
X148729290Y-101007684D01*
X148864106Y-101076376D01*
X148935523Y-101112766D01*
X148935526Y-101112767D01*
X149020647Y-101140424D01*
X149155657Y-101184291D01*
X149384269Y-101220500D01*
X149384270Y-101220500D01*
X149615729Y-101220500D01*
X149615731Y-101220500D01*
X149745572Y-101199934D01*
X149814861Y-101208888D01*
X149852648Y-101234726D01*
X152163181Y-103545259D01*
X152196666Y-103606582D01*
X152199500Y-103632940D01*
X152199500Y-107617060D01*
X152179815Y-107684099D01*
X152163181Y-107704741D01*
X149204741Y-110663181D01*
X149143418Y-110696666D01*
X149117060Y-110699500D01*
X138632940Y-110699500D01*
X138565901Y-110679815D01*
X138545259Y-110663181D01*
X137586819Y-109704741D01*
X137553334Y-109643418D01*
X137550500Y-109617060D01*
X137550500Y-108220207D01*
X137551081Y-108216704D01*
X137550617Y-108214825D01*
X137553712Y-108200854D01*
X137557151Y-108180142D01*
X137558427Y-108176403D01*
X137615894Y-108037666D01*
X137629989Y-107966802D01*
X137632651Y-107959008D01*
X137648239Y-107936921D01*
X137660768Y-107912971D01*
X137668084Y-107908804D01*
X137672941Y-107901924D01*
X137697996Y-107891771D01*
X137721483Y-107878397D01*
X137729891Y-107878847D01*
X137737696Y-107875685D01*
X137764260Y-107880689D01*
X137791253Y-107882136D01*
X137798082Y-107887061D01*
X137806358Y-107888620D01*
X137826001Y-107907193D01*
X137847925Y-107923003D01*
X137851879Y-107931662D01*
X137857127Y-107936624D01*
X137860640Y-107950845D01*
X137871617Y-107974882D01*
X137884103Y-108037658D01*
X137884106Y-108037667D01*
X137951983Y-108201540D01*
X137951990Y-108201553D01*
X138050535Y-108349034D01*
X138050538Y-108349038D01*
X138175961Y-108474461D01*
X138175965Y-108474464D01*
X138323446Y-108573009D01*
X138323459Y-108573016D01*
X138446363Y-108623923D01*
X138487334Y-108640894D01*
X138487336Y-108640894D01*
X138487341Y-108640896D01*
X138661304Y-108675499D01*
X138661307Y-108675500D01*
X138661309Y-108675500D01*
X138838693Y-108675500D01*
X138838694Y-108675499D01*
X138896682Y-108663964D01*
X139012658Y-108640896D01*
X139012661Y-108640894D01*
X139012666Y-108640894D01*
X139176547Y-108573013D01*
X139324035Y-108474464D01*
X139449464Y-108349035D01*
X139548013Y-108201547D01*
X139615894Y-108037666D01*
X139650500Y-107863691D01*
X139650500Y-107136309D01*
X139650500Y-107136306D01*
X139650499Y-107136304D01*
X139615896Y-106962341D01*
X139615893Y-106962332D01*
X139548016Y-106798459D01*
X139548009Y-106798446D01*
X139449464Y-106650965D01*
X139449461Y-106650961D01*
X139324038Y-106525538D01*
X139324034Y-106525535D01*
X139176553Y-106426990D01*
X139176540Y-106426983D01*
X139012667Y-106359106D01*
X139012658Y-106359103D01*
X138838694Y-106324500D01*
X138838691Y-106324500D01*
X138661309Y-106324500D01*
X138661306Y-106324500D01*
X138487341Y-106359103D01*
X138487332Y-106359106D01*
X138323459Y-106426983D01*
X138323446Y-106426990D01*
X138175965Y-106525535D01*
X138175961Y-106525538D01*
X138050538Y-106650961D01*
X138050535Y-106650965D01*
X137951990Y-106798446D01*
X137951983Y-106798459D01*
X137884106Y-106962332D01*
X137884104Y-106962340D01*
X137871617Y-107025118D01*
X137839232Y-107087028D01*
X137778516Y-107121603D01*
X137708747Y-107117863D01*
X137652075Y-107076996D01*
X137628383Y-107025118D01*
X137615895Y-106962340D01*
X137615894Y-106962334D01*
X137578128Y-106871158D01*
X137548016Y-106798459D01*
X137548009Y-106798446D01*
X137449464Y-106650965D01*
X137449461Y-106650961D01*
X137324038Y-106525538D01*
X137324034Y-106525535D01*
X137176553Y-106426990D01*
X137176540Y-106426983D01*
X137012667Y-106359106D01*
X137012658Y-106359103D01*
X136838694Y-106324500D01*
X136838691Y-106324500D01*
X136661309Y-106324500D01*
X136661306Y-106324500D01*
X136487341Y-106359103D01*
X136487332Y-106359106D01*
X136323459Y-106426983D01*
X136323446Y-106426990D01*
X136175965Y-106525535D01*
X136175961Y-106525538D01*
X136050538Y-106650961D01*
X136050535Y-106650965D01*
X135951990Y-106798446D01*
X135951983Y-106798459D01*
X135884106Y-106962332D01*
X135884104Y-106962340D01*
X135871617Y-107025118D01*
X135870253Y-107027724D01*
X135870381Y-107030664D01*
X135854163Y-107058484D01*
X135839232Y-107087028D01*
X135836674Y-107088484D01*
X135835193Y-107091026D01*
X135806512Y-107105660D01*
X135778516Y-107121603D01*
X135775576Y-107121445D01*
X135772957Y-107122782D01*
X135740917Y-107119587D01*
X135708747Y-107117863D01*
X135706360Y-107116141D01*
X135703432Y-107115850D01*
X135678189Y-107095827D01*
X135652075Y-107076996D01*
X135650299Y-107073705D01*
X135648692Y-107072430D01*
X135645110Y-107064087D01*
X135632651Y-107040992D01*
X135629989Y-107033197D01*
X135615894Y-106962334D01*
X135558423Y-106823587D01*
X135557151Y-106819859D01*
X135556782Y-106811376D01*
X135550500Y-106779793D01*
X135550500Y-106257940D01*
X135558310Y-106231343D01*
X148725762Y-106231343D01*
X148759780Y-106250984D01*
X148759801Y-106250994D01*
X148962043Y-106334765D01*
X149173503Y-106391426D01*
X149390532Y-106419998D01*
X149390549Y-106420000D01*
X149609451Y-106420000D01*
X149609467Y-106419998D01*
X149826496Y-106391426D01*
X150037956Y-106334765D01*
X150240201Y-106250993D01*
X150240214Y-106250987D01*
X150274236Y-106231342D01*
X149500001Y-105457106D01*
X149500000Y-105457106D01*
X148725762Y-106231343D01*
X135558310Y-106231343D01*
X135570185Y-106190901D01*
X135586819Y-106170259D01*
X136170259Y-105586819D01*
X136231582Y-105553334D01*
X136257940Y-105550500D01*
X141408844Y-105550500D01*
X141408845Y-105550499D01*
X141563497Y-105519737D01*
X141709179Y-105459394D01*
X141840289Y-105371789D01*
X142571528Y-104640548D01*
X147830000Y-104640548D01*
X147830000Y-104859451D01*
X147830001Y-104859467D01*
X147858573Y-105076496D01*
X147915234Y-105287956D01*
X147999002Y-105490192D01*
X147999006Y-105490200D01*
X148018656Y-105524235D01*
X148792893Y-104750000D01*
X148792893Y-104749999D01*
X148728875Y-104685981D01*
X148850000Y-104685981D01*
X148850000Y-104814019D01*
X148874979Y-104939598D01*
X148923978Y-105057890D01*
X148995112Y-105164351D01*
X149085649Y-105254888D01*
X149192110Y-105326022D01*
X149310402Y-105375021D01*
X149435981Y-105400000D01*
X149564019Y-105400000D01*
X149689598Y-105375021D01*
X149807890Y-105326022D01*
X149914351Y-105254888D01*
X150004888Y-105164351D01*
X150076022Y-105057890D01*
X150125021Y-104939598D01*
X150150000Y-104814019D01*
X150150000Y-104750000D01*
X150207106Y-104750000D01*
X150981342Y-105524235D01*
X151000987Y-105490214D01*
X151000993Y-105490201D01*
X151084765Y-105287956D01*
X151141426Y-105076496D01*
X151169998Y-104859467D01*
X151170000Y-104859451D01*
X151170000Y-104640548D01*
X151169998Y-104640532D01*
X151141426Y-104423503D01*
X151084765Y-104212043D01*
X151000994Y-104009801D01*
X151000984Y-104009780D01*
X150981343Y-103975763D01*
X150981343Y-103975762D01*
X150207106Y-104750000D01*
X150150000Y-104750000D01*
X150150000Y-104685981D01*
X150125021Y-104560402D01*
X150076022Y-104442110D01*
X150004888Y-104335649D01*
X149914351Y-104245112D01*
X149807890Y-104173978D01*
X149689598Y-104124979D01*
X149564019Y-104100000D01*
X149435981Y-104100000D01*
X149310402Y-104124979D01*
X149192110Y-104173978D01*
X149085649Y-104245112D01*
X148995112Y-104335649D01*
X148923978Y-104442110D01*
X148874979Y-104560402D01*
X148850000Y-104685981D01*
X148728875Y-104685981D01*
X148018656Y-103975762D01*
X148018656Y-103975763D01*
X147999008Y-104009794D01*
X147999003Y-104009804D01*
X147915234Y-104212043D01*
X147858573Y-104423503D01*
X147830001Y-104640532D01*
X147830000Y-104640548D01*
X142571528Y-104640548D01*
X142645259Y-104566817D01*
X142706582Y-104533333D01*
X142732940Y-104530499D01*
X143694856Y-104530499D01*
X143694864Y-104530499D01*
X143694879Y-104530497D01*
X143694882Y-104530497D01*
X143719986Y-104527586D01*
X143719987Y-104527585D01*
X143719991Y-104527585D01*
X143822765Y-104482206D01*
X143902206Y-104402765D01*
X143947585Y-104299991D01*
X143950500Y-104274865D01*
X143950499Y-103268656D01*
X148725762Y-103268656D01*
X149500000Y-104042893D01*
X149500001Y-104042893D01*
X150274236Y-103268656D01*
X150240200Y-103249006D01*
X150240192Y-103249002D01*
X150037956Y-103165234D01*
X149826496Y-103108573D01*
X149609467Y-103080001D01*
X149609451Y-103080000D01*
X149390549Y-103080000D01*
X149390532Y-103080001D01*
X149173503Y-103108573D01*
X148962043Y-103165234D01*
X148759804Y-103249003D01*
X148759794Y-103249008D01*
X148725763Y-103268656D01*
X148725762Y-103268656D01*
X143950499Y-103268656D01*
X143950499Y-102385136D01*
X143950290Y-102383332D01*
X143947586Y-102360012D01*
X143947585Y-102360010D01*
X143947585Y-102360009D01*
X143902206Y-102257235D01*
X143822765Y-102177794D01*
X143758049Y-102149219D01*
X143719992Y-102132415D01*
X143694865Y-102129500D01*
X141805143Y-102129500D01*
X141805117Y-102129502D01*
X141780012Y-102132413D01*
X141780008Y-102132415D01*
X141677235Y-102177793D01*
X141597794Y-102257234D01*
X141552415Y-102360006D01*
X141552415Y-102360008D01*
X141549500Y-102385131D01*
X141549500Y-103347059D01*
X141529815Y-103414098D01*
X141513181Y-103434740D01*
X141034741Y-103913181D01*
X140973418Y-103946666D01*
X140947060Y-103949500D01*
X135796155Y-103949500D01*
X135664130Y-103975762D01*
X135650788Y-103978416D01*
X135648898Y-103978791D01*
X135641504Y-103980262D01*
X135641500Y-103980263D01*
X135495827Y-104040602D01*
X135495814Y-104040609D01*
X135399055Y-104105263D01*
X135399054Y-104105264D01*
X135364708Y-104128212D01*
X134837680Y-104655240D01*
X134776357Y-104688725D01*
X134706665Y-104683741D01*
X134662318Y-104655240D01*
X131486818Y-101479740D01*
X131453333Y-101418417D01*
X131450499Y-101392059D01*
X131450499Y-100977643D01*
X131450499Y-100977636D01*
X131449427Y-100968390D01*
X131447586Y-100952512D01*
X131447585Y-100952510D01*
X131447585Y-100952509D01*
X131402206Y-100849735D01*
X131322765Y-100770294D01*
X131322763Y-100770293D01*
X131219992Y-100724915D01*
X131194868Y-100722000D01*
X130893756Y-100722000D01*
X130826717Y-100702315D01*
X130806075Y-100685681D01*
X130250001Y-100129606D01*
X130250000Y-100129606D01*
X129693924Y-100685681D01*
X129632601Y-100719166D01*
X129606243Y-100722000D01*
X129305143Y-100722000D01*
X129305117Y-100722002D01*
X129280012Y-100724913D01*
X129280008Y-100724915D01*
X129177235Y-100770293D01*
X129097794Y-100849734D01*
X129052415Y-100952506D01*
X129052415Y-100952508D01*
X129049500Y-100977631D01*
X129049500Y-102867356D01*
X129049502Y-102867382D01*
X129052413Y-102892487D01*
X129052415Y-102892491D01*
X129097793Y-102995264D01*
X129097794Y-102995265D01*
X129177235Y-103074706D01*
X129280009Y-103120085D01*
X129305135Y-103123000D01*
X130814559Y-103122999D01*
X130881598Y-103142684D01*
X130902240Y-103159318D01*
X133913181Y-106170259D01*
X133946666Y-106231582D01*
X133949500Y-106257940D01*
X133949500Y-106639696D01*
X133929815Y-106706735D01*
X133877011Y-106752490D01*
X133807853Y-106762434D01*
X133744297Y-106733409D01*
X133715016Y-106695992D01*
X133690805Y-106648478D01*
X133589032Y-106508397D01*
X133466602Y-106385967D01*
X133326521Y-106284194D01*
X133250000Y-106245203D01*
X133250000Y-108754794D01*
X133326521Y-108715805D01*
X133466602Y-108614032D01*
X133589032Y-108491602D01*
X133690804Y-108351524D01*
X133715015Y-108304008D01*
X133762990Y-108253212D01*
X133830811Y-108236417D01*
X133896945Y-108258954D01*
X133940397Y-108313669D01*
X133949500Y-108360303D01*
X133949500Y-109367060D01*
X133929815Y-109434099D01*
X133913181Y-109454741D01*
X132704741Y-110663181D01*
X132643418Y-110696666D01*
X132617060Y-110699500D01*
X118132940Y-110699500D01*
X118065901Y-110679815D01*
X118045259Y-110663181D01*
X114036819Y-106654741D01*
X114003334Y-106593418D01*
X114000500Y-106567060D01*
X114000500Y-105257939D01*
X114020185Y-105190900D01*
X114036814Y-105170263D01*
X115801563Y-103405513D01*
X122549500Y-103405513D01*
X122549500Y-103594486D01*
X122579059Y-103781118D01*
X122637454Y-103960836D01*
X122721090Y-104124979D01*
X122723240Y-104129199D01*
X122834310Y-104282073D01*
X122967927Y-104415690D01*
X123120801Y-104526760D01*
X123199420Y-104566818D01*
X123289163Y-104612545D01*
X123289165Y-104612545D01*
X123289168Y-104612547D01*
X123375346Y-104640548D01*
X123468881Y-104670940D01*
X123655514Y-104700500D01*
X123655519Y-104700500D01*
X123767060Y-104700500D01*
X123834099Y-104720185D01*
X123854741Y-104736819D01*
X127128211Y-108010289D01*
X127196765Y-108078843D01*
X127239712Y-108121790D01*
X127370814Y-108209390D01*
X127370827Y-108209397D01*
X127484700Y-108256564D01*
X127516503Y-108269737D01*
X127516507Y-108269737D01*
X127516508Y-108269738D01*
X127671154Y-108300500D01*
X127671157Y-108300500D01*
X127671158Y-108300500D01*
X129793055Y-108300500D01*
X129860094Y-108320185D01*
X129905849Y-108372989D01*
X129908405Y-108379000D01*
X129908479Y-108379185D01*
X129915639Y-108397343D01*
X130007077Y-108517922D01*
X130127656Y-108609360D01*
X130127657Y-108609360D01*
X130127658Y-108609361D01*
X130268436Y-108664877D01*
X130356898Y-108675500D01*
X130356903Y-108675500D01*
X131143097Y-108675500D01*
X131143102Y-108675500D01*
X131231564Y-108664877D01*
X131372342Y-108609361D01*
X131492922Y-108517922D01*
X131584361Y-108397342D01*
X131592292Y-108377228D01*
X131635195Y-108322086D01*
X131701102Y-108298890D01*
X131769087Y-108315008D01*
X131807965Y-108349832D01*
X131910961Y-108491596D01*
X132033397Y-108614032D01*
X132173478Y-108715805D01*
X132250000Y-108754794D01*
X132250000Y-107450630D01*
X132375000Y-107450630D01*
X132375000Y-107549370D01*
X132400556Y-107644745D01*
X132449925Y-107730255D01*
X132519745Y-107800075D01*
X132605255Y-107849444D01*
X132700630Y-107875000D01*
X132799370Y-107875000D01*
X132894745Y-107849444D01*
X132980255Y-107800075D01*
X133050075Y-107730255D01*
X133099444Y-107644745D01*
X133125000Y-107549370D01*
X133125000Y-107450630D01*
X133099444Y-107355255D01*
X133050075Y-107269745D01*
X132980255Y-107199925D01*
X132894745Y-107150556D01*
X132799370Y-107125000D01*
X132700630Y-107125000D01*
X132605255Y-107150556D01*
X132519745Y-107199925D01*
X132449925Y-107269745D01*
X132400556Y-107355255D01*
X132375000Y-107450630D01*
X132250000Y-107450630D01*
X132250000Y-106245204D01*
X132249999Y-106245203D01*
X132173478Y-106284194D01*
X132033397Y-106385967D01*
X131910965Y-106508399D01*
X131910961Y-106508404D01*
X131807965Y-106650167D01*
X131752635Y-106692833D01*
X131683022Y-106698812D01*
X131621227Y-106666206D01*
X131592292Y-106622771D01*
X131584361Y-106602658D01*
X131584360Y-106602657D01*
X131584360Y-106602656D01*
X131492922Y-106482077D01*
X131372343Y-106390639D01*
X131231561Y-106335122D01*
X131185926Y-106329642D01*
X131143102Y-106324500D01*
X130356898Y-106324500D01*
X130317853Y-106329188D01*
X130268438Y-106335122D01*
X130127656Y-106390639D01*
X130007077Y-106482077D01*
X129915639Y-106602656D01*
X129910362Y-106616038D01*
X129909423Y-106618422D01*
X129908410Y-106620990D01*
X129865504Y-106676134D01*
X129799596Y-106699327D01*
X129793055Y-106699500D01*
X128132940Y-106699500D01*
X128065901Y-106679815D01*
X128045259Y-106663181D01*
X124986819Y-103604741D01*
X124953334Y-103543418D01*
X124950500Y-103517060D01*
X124950500Y-103405513D01*
X124920940Y-103218881D01*
X124889786Y-103123000D01*
X124862547Y-103039168D01*
X124862545Y-103039165D01*
X124862545Y-103039163D01*
X124813253Y-102942422D01*
X124776760Y-102870801D01*
X124665690Y-102717927D01*
X124532073Y-102584310D01*
X124379199Y-102473240D01*
X124210836Y-102387454D01*
X124031118Y-102329059D01*
X123844486Y-102299500D01*
X123844481Y-102299500D01*
X123655519Y-102299500D01*
X123655514Y-102299500D01*
X123468881Y-102329059D01*
X123289163Y-102387454D01*
X123120800Y-102473240D01*
X123033579Y-102536610D01*
X122967927Y-102584310D01*
X122967925Y-102584312D01*
X122967924Y-102584312D01*
X122834312Y-102717924D01*
X122834312Y-102717925D01*
X122834310Y-102717927D01*
X122788673Y-102780741D01*
X122723240Y-102870800D01*
X122637454Y-103039163D01*
X122579059Y-103218881D01*
X122549500Y-103405513D01*
X115801563Y-103405513D01*
X116220978Y-102986098D01*
X116282299Y-102952615D01*
X116318404Y-102950165D01*
X116322643Y-102950499D01*
X116322648Y-102950500D01*
X116322653Y-102950500D01*
X116527351Y-102950500D01*
X116527352Y-102950500D01*
X116729534Y-102918477D01*
X116924219Y-102855220D01*
X117106610Y-102762287D01*
X117201894Y-102693060D01*
X117272213Y-102641971D01*
X117272215Y-102641968D01*
X117272219Y-102641966D01*
X117416966Y-102497219D01*
X117416968Y-102497215D01*
X117416971Y-102497213D01*
X117499709Y-102383332D01*
X117537287Y-102331610D01*
X117630220Y-102149219D01*
X117693477Y-101954534D01*
X117725500Y-101752352D01*
X117725500Y-101547648D01*
X117708992Y-101443421D01*
X117693477Y-101345465D01*
X117646191Y-101199934D01*
X117630220Y-101150781D01*
X117630218Y-101150778D01*
X117630218Y-101150776D01*
X117557308Y-101007684D01*
X117537287Y-100968390D01*
X117525747Y-100952506D01*
X117416971Y-100802786D01*
X117272213Y-100658028D01*
X117106613Y-100537715D01*
X117106612Y-100537714D01*
X117106610Y-100537713D01*
X117049653Y-100508691D01*
X116924223Y-100444781D01*
X116729534Y-100381522D01*
X116554995Y-100353878D01*
X116527352Y-100349500D01*
X116322648Y-100349500D01*
X116298329Y-100353351D01*
X116120465Y-100381522D01*
X115925776Y-100444781D01*
X115743386Y-100537715D01*
X115577786Y-100658028D01*
X115433028Y-100802786D01*
X115312715Y-100968386D01*
X115219781Y-101150776D01*
X115156522Y-101345465D01*
X115124500Y-101547648D01*
X115124500Y-101752359D01*
X115124835Y-101756619D01*
X115110467Y-101824996D01*
X115088898Y-101854022D01*
X114212181Y-102730740D01*
X114150858Y-102764225D01*
X114081167Y-102759241D01*
X114025233Y-102717369D01*
X114000816Y-102651905D01*
X114000500Y-102643059D01*
X114000500Y-99312318D01*
X128850000Y-99312318D01*
X128850000Y-99532681D01*
X128884473Y-99750335D01*
X128952568Y-99959912D01*
X128970427Y-99994964D01*
X128970428Y-99994964D01*
X129542893Y-99422500D01*
X129542893Y-99422499D01*
X129483650Y-99363256D01*
X129800000Y-99363256D01*
X129800000Y-99481744D01*
X129830667Y-99596194D01*
X129889910Y-99698806D01*
X129973694Y-99782590D01*
X130076306Y-99841833D01*
X130190756Y-99872500D01*
X130309244Y-99872500D01*
X130423694Y-99841833D01*
X130526306Y-99782590D01*
X130610090Y-99698806D01*
X130669333Y-99596194D01*
X130700000Y-99481744D01*
X130700000Y-99422500D01*
X130957106Y-99422500D01*
X131529570Y-99994964D01*
X131547428Y-99959918D01*
X131547431Y-99959911D01*
X131615526Y-99750335D01*
X131650000Y-99532681D01*
X131650000Y-99312318D01*
X131615526Y-99094664D01*
X131547432Y-98885089D01*
X131529570Y-98850034D01*
X130957106Y-99422500D01*
X130700000Y-99422500D01*
X130700000Y-99363256D01*
X130669333Y-99248806D01*
X130610090Y-99146194D01*
X130526306Y-99062410D01*
X130423694Y-99003167D01*
X130309244Y-98972500D01*
X130190756Y-98972500D01*
X130076306Y-99003167D01*
X129973694Y-99062410D01*
X129889910Y-99146194D01*
X129830667Y-99248806D01*
X129800000Y-99363256D01*
X129483650Y-99363256D01*
X128970428Y-98850034D01*
X128952568Y-98885088D01*
X128952567Y-98885091D01*
X128884473Y-99094664D01*
X128850000Y-99312318D01*
X114000500Y-99312318D01*
X114000500Y-98503919D01*
X115778184Y-98503919D01*
X115849197Y-98540102D01*
X116073752Y-98613065D01*
X116073751Y-98613065D01*
X116306948Y-98650000D01*
X116543052Y-98650000D01*
X116776247Y-98613065D01*
X117000797Y-98540104D01*
X117071814Y-98503919D01*
X116425001Y-97857106D01*
X116425000Y-97857106D01*
X115778184Y-98503919D01*
X114000500Y-98503919D01*
X114000500Y-97031947D01*
X114925000Y-97031947D01*
X114925000Y-97268052D01*
X114961934Y-97501247D01*
X115034898Y-97725805D01*
X115071078Y-97796813D01*
X115071079Y-97796814D01*
X115717894Y-97150000D01*
X115645485Y-97077591D01*
X115875000Y-97077591D01*
X115875000Y-97222409D01*
X115912482Y-97362292D01*
X115984890Y-97487708D01*
X116087292Y-97590110D01*
X116212708Y-97662518D01*
X116352591Y-97700000D01*
X116497409Y-97700000D01*
X116637292Y-97662518D01*
X116762708Y-97590110D01*
X116865110Y-97487708D01*
X116937518Y-97362292D01*
X116975000Y-97222409D01*
X116975000Y-97149999D01*
X117132106Y-97149999D01*
X117132106Y-97150000D01*
X117778919Y-97796814D01*
X117815104Y-97725797D01*
X117888065Y-97501247D01*
X117925000Y-97268052D01*
X117925000Y-97031947D01*
X117895002Y-96842545D01*
X117892700Y-96828013D01*
X129049500Y-96828013D01*
X129049500Y-97016986D01*
X129079059Y-97203618D01*
X129137454Y-97383336D01*
X129223240Y-97551699D01*
X129334310Y-97704573D01*
X129467927Y-97838190D01*
X129620801Y-97949260D01*
X129622363Y-97950056D01*
X129622377Y-97950063D01*
X129622869Y-97950528D01*
X129624953Y-97951805D01*
X129624684Y-97952242D01*
X129673172Y-97998039D01*
X129689966Y-98065860D01*
X129685093Y-98080155D01*
X129687419Y-98080524D01*
X129677534Y-98142928D01*
X130250000Y-98715393D01*
X130250001Y-98715393D01*
X130822464Y-98142928D01*
X130812580Y-98080524D01*
X130816158Y-98079957D01*
X130810034Y-98055177D01*
X130832604Y-97989053D01*
X130875244Y-97952127D01*
X130875047Y-97951805D01*
X130876994Y-97950611D01*
X130877634Y-97950056D01*
X130879199Y-97949260D01*
X131032073Y-97838190D01*
X131165690Y-97704573D01*
X131276760Y-97551699D01*
X131362547Y-97383332D01*
X131420940Y-97203618D01*
X131429432Y-97150000D01*
X131450500Y-97016986D01*
X131450500Y-96828013D01*
X135049500Y-96828013D01*
X135049500Y-97016986D01*
X135079059Y-97203618D01*
X135137454Y-97383336D01*
X135223240Y-97551699D01*
X135334310Y-97704573D01*
X135467927Y-97838190D01*
X135620801Y-97949260D01*
X135626654Y-97952242D01*
X135789163Y-98035045D01*
X135789165Y-98035045D01*
X135789168Y-98035047D01*
X135849251Y-98054569D01*
X135906926Y-98094007D01*
X135934124Y-98158366D01*
X135922209Y-98227212D01*
X135874965Y-98278688D01*
X135849253Y-98290430D01*
X135830756Y-98296439D01*
X135789163Y-98309954D01*
X135620800Y-98395740D01*
X135533579Y-98459110D01*
X135467927Y-98506810D01*
X135467925Y-98506812D01*
X135467924Y-98506812D01*
X135334312Y-98640424D01*
X135334312Y-98640425D01*
X135334310Y-98640427D01*
X135327355Y-98650000D01*
X135223240Y-98793300D01*
X135137454Y-98961663D01*
X135079059Y-99141381D01*
X135049500Y-99328013D01*
X135049500Y-99516986D01*
X135079059Y-99703618D01*
X135137454Y-99883336D01*
X135176472Y-99959912D01*
X135223240Y-100051699D01*
X135334310Y-100204573D01*
X135467927Y-100338190D01*
X135620801Y-100449260D01*
X135700347Y-100489790D01*
X135789163Y-100535045D01*
X135789165Y-100535045D01*
X135789168Y-100535047D01*
X135849251Y-100554569D01*
X135906926Y-100594007D01*
X135934124Y-100658366D01*
X135922209Y-100727212D01*
X135874965Y-100778688D01*
X135849253Y-100790430D01*
X135830756Y-100796439D01*
X135789163Y-100809954D01*
X135620800Y-100895740D01*
X135542661Y-100952512D01*
X135467927Y-101006810D01*
X135467925Y-101006812D01*
X135467924Y-101006812D01*
X135334312Y-101140424D01*
X135334312Y-101140425D01*
X135334310Y-101140427D01*
X135302442Y-101184290D01*
X135223240Y-101293300D01*
X135137454Y-101461663D01*
X135079059Y-101641381D01*
X135049500Y-101828013D01*
X135049500Y-102016986D01*
X135079059Y-102203618D01*
X135137454Y-102383336D01*
X135183263Y-102473240D01*
X135223240Y-102551699D01*
X135334310Y-102704573D01*
X135467927Y-102838190D01*
X135620801Y-102949260D01*
X135627386Y-102952615D01*
X135789163Y-103035045D01*
X135789165Y-103035045D01*
X135789168Y-103035047D01*
X135885497Y-103066346D01*
X135968881Y-103093440D01*
X136155514Y-103123000D01*
X136155519Y-103123000D01*
X136344486Y-103123000D01*
X136531118Y-103093440D01*
X136710832Y-103035047D01*
X136879199Y-102949260D01*
X137032073Y-102838190D01*
X137165690Y-102704573D01*
X137276760Y-102551699D01*
X137361630Y-102385131D01*
X137362545Y-102383336D01*
X137362545Y-102383335D01*
X137362547Y-102383332D01*
X137420940Y-102203618D01*
X137429556Y-102149219D01*
X137450500Y-102016986D01*
X137450500Y-101828013D01*
X137420940Y-101641381D01*
X137362545Y-101461663D01*
X137276759Y-101293300D01*
X137165690Y-101140427D01*
X137032073Y-101006810D01*
X136879199Y-100895740D01*
X136710832Y-100809953D01*
X136650748Y-100790430D01*
X136593073Y-100750993D01*
X136565875Y-100686635D01*
X136577790Y-100617788D01*
X136625034Y-100566313D01*
X136650746Y-100554569D01*
X136710832Y-100535047D01*
X136879199Y-100449260D01*
X137032073Y-100338190D01*
X137165690Y-100204573D01*
X137276760Y-100051699D01*
X137362547Y-99883332D01*
X137420940Y-99703618D01*
X137431924Y-99634269D01*
X137450500Y-99516986D01*
X137450500Y-99328013D01*
X137420940Y-99141381D01*
X137376031Y-99003167D01*
X137362547Y-98961668D01*
X137362545Y-98961665D01*
X137362545Y-98961663D01*
X137276759Y-98793300D01*
X137275839Y-98792034D01*
X137165690Y-98640427D01*
X137032073Y-98506810D01*
X136879199Y-98395740D01*
X136710832Y-98309953D01*
X136650748Y-98290430D01*
X136593073Y-98250993D01*
X136565875Y-98186635D01*
X136577790Y-98117788D01*
X136625034Y-98066313D01*
X136650746Y-98054569D01*
X136710832Y-98035047D01*
X136879199Y-97949260D01*
X137032073Y-97838190D01*
X137165690Y-97704573D01*
X137276760Y-97551699D01*
X137362547Y-97383332D01*
X137420940Y-97203618D01*
X137429432Y-97150000D01*
X137450500Y-97016986D01*
X137450500Y-96828013D01*
X137420940Y-96641381D01*
X137362545Y-96461663D01*
X137276759Y-96293300D01*
X137165690Y-96140427D01*
X137032073Y-96006810D01*
X136879199Y-95895740D01*
X136710836Y-95809954D01*
X136531118Y-95751559D01*
X136344486Y-95722000D01*
X136344481Y-95722000D01*
X136155519Y-95722000D01*
X136155514Y-95722000D01*
X135968881Y-95751559D01*
X135789163Y-95809954D01*
X135620800Y-95895740D01*
X135533579Y-95959110D01*
X135467927Y-96006810D01*
X135467925Y-96006812D01*
X135467924Y-96006812D01*
X135334312Y-96140424D01*
X135334312Y-96140425D01*
X135334310Y-96140427D01*
X135302442Y-96184290D01*
X135223240Y-96293300D01*
X135137454Y-96461663D01*
X135079059Y-96641381D01*
X135049500Y-96828013D01*
X131450500Y-96828013D01*
X131420940Y-96641381D01*
X131362545Y-96461663D01*
X131276759Y-96293300D01*
X131165690Y-96140427D01*
X131032073Y-96006810D01*
X130879199Y-95895740D01*
X130710836Y-95809954D01*
X130531118Y-95751559D01*
X130344486Y-95722000D01*
X130344481Y-95722000D01*
X130155519Y-95722000D01*
X130155514Y-95722000D01*
X129968881Y-95751559D01*
X129789163Y-95809954D01*
X129620800Y-95895740D01*
X129533579Y-95959110D01*
X129467927Y-96006810D01*
X129467925Y-96006812D01*
X129467924Y-96006812D01*
X129334312Y-96140424D01*
X129334312Y-96140425D01*
X129334310Y-96140427D01*
X129302442Y-96184290D01*
X129223240Y-96293300D01*
X129137454Y-96461663D01*
X129079059Y-96641381D01*
X129049500Y-96828013D01*
X117892700Y-96828013D01*
X117888065Y-96798752D01*
X117815102Y-96574197D01*
X117778919Y-96503184D01*
X117132106Y-97149999D01*
X116975000Y-97149999D01*
X116975000Y-97077591D01*
X116937518Y-96937708D01*
X116865110Y-96812292D01*
X116762708Y-96709890D01*
X116637292Y-96637482D01*
X116497409Y-96600000D01*
X116352591Y-96600000D01*
X116212708Y-96637482D01*
X116087292Y-96709890D01*
X115984890Y-96812292D01*
X115912482Y-96937708D01*
X115875000Y-97077591D01*
X115645485Y-97077591D01*
X115071078Y-96503184D01*
X115034894Y-96574202D01*
X115034894Y-96574203D01*
X114961934Y-96798751D01*
X114925000Y-97031947D01*
X114000500Y-97031947D01*
X114000500Y-95796078D01*
X115778184Y-95796078D01*
X116425000Y-96442894D01*
X116425001Y-96442894D01*
X117071814Y-95796079D01*
X117071813Y-95796078D01*
X117000805Y-95759898D01*
X116776247Y-95686934D01*
X116776248Y-95686934D01*
X116543052Y-95650000D01*
X116306948Y-95650000D01*
X116073751Y-95686934D01*
X115849203Y-95759894D01*
X115849202Y-95759894D01*
X115778184Y-95796078D01*
X114000500Y-95796078D01*
X114000500Y-94287844D01*
X122350000Y-94287844D01*
X122356401Y-94347372D01*
X122356403Y-94347379D01*
X122406645Y-94482086D01*
X122406649Y-94482093D01*
X122492809Y-94597187D01*
X122492812Y-94597190D01*
X122607906Y-94683350D01*
X122607913Y-94683354D01*
X122742620Y-94733596D01*
X122742627Y-94733598D01*
X122802155Y-94739999D01*
X122802172Y-94740000D01*
X123250000Y-94740000D01*
X124250000Y-94740000D01*
X124697828Y-94740000D01*
X124697844Y-94739999D01*
X124757372Y-94733598D01*
X124757379Y-94733596D01*
X124892086Y-94683354D01*
X124892093Y-94683350D01*
X124957656Y-94634269D01*
X148029500Y-94634269D01*
X148029500Y-94865730D01*
X148065709Y-95094344D01*
X148137232Y-95314473D01*
X148137233Y-95314476D01*
X148242318Y-95520713D01*
X148378359Y-95707959D01*
X148378363Y-95707964D01*
X148542035Y-95871636D01*
X148542040Y-95871640D01*
X148705366Y-95990302D01*
X148729290Y-96007684D01*
X148864106Y-96076376D01*
X148935523Y-96112766D01*
X148935526Y-96112767D01*
X149020647Y-96140424D01*
X149155657Y-96184291D01*
X149384269Y-96220500D01*
X149384270Y-96220500D01*
X149615730Y-96220500D01*
X149615731Y-96220500D01*
X149844343Y-96184291D01*
X150064476Y-96112766D01*
X150270710Y-96007684D01*
X150457966Y-95871635D01*
X150621635Y-95707966D01*
X150757684Y-95520710D01*
X150862766Y-95314476D01*
X150934291Y-95094343D01*
X150970500Y-94865731D01*
X150970500Y-94634269D01*
X150934291Y-94405657D01*
X150866417Y-94196760D01*
X150862767Y-94185526D01*
X150862766Y-94185523D01*
X150811896Y-94085687D01*
X150757684Y-93979290D01*
X150737910Y-93952073D01*
X150621640Y-93792040D01*
X150621636Y-93792035D01*
X150457964Y-93628363D01*
X150457959Y-93628359D01*
X150270713Y-93492318D01*
X150270712Y-93492317D01*
X150270710Y-93492316D01*
X150189855Y-93451118D01*
X150064476Y-93387233D01*
X150064473Y-93387232D01*
X149844344Y-93315709D01*
X149730037Y-93297604D01*
X149615731Y-93279500D01*
X149384269Y-93279500D01*
X149308065Y-93291569D01*
X149155655Y-93315709D01*
X148935526Y-93387232D01*
X148935523Y-93387233D01*
X148729286Y-93492318D01*
X148542040Y-93628359D01*
X148542035Y-93628363D01*
X148378363Y-93792035D01*
X148378359Y-93792040D01*
X148242318Y-93979286D01*
X148137233Y-94185523D01*
X148137232Y-94185526D01*
X148065709Y-94405655D01*
X148029500Y-94634269D01*
X124957656Y-94634269D01*
X125007187Y-94597190D01*
X125038708Y-94555085D01*
X125038709Y-94555083D01*
X125093350Y-94482093D01*
X125093354Y-94482086D01*
X125143596Y-94347379D01*
X125143598Y-94347372D01*
X125149999Y-94287844D01*
X125150000Y-94287827D01*
X125150000Y-93840000D01*
X124250000Y-93840000D01*
X124250000Y-94740000D01*
X123250000Y-94740000D01*
X123250000Y-93840000D01*
X122350000Y-93840000D01*
X122350000Y-94287844D01*
X114000500Y-94287844D01*
X114000500Y-93280756D01*
X123300000Y-93280756D01*
X123300000Y-93399244D01*
X123330667Y-93513694D01*
X123389910Y-93616306D01*
X123473694Y-93700090D01*
X123576306Y-93759333D01*
X123690756Y-93790000D01*
X123809244Y-93790000D01*
X123923694Y-93759333D01*
X124026306Y-93700090D01*
X124110090Y-93616306D01*
X124169333Y-93513694D01*
X124200000Y-93399244D01*
X124200000Y-93280756D01*
X124169333Y-93166306D01*
X124116914Y-93075513D01*
X141549500Y-93075513D01*
X141549500Y-93264486D01*
X141579059Y-93451118D01*
X141637454Y-93630836D01*
X141702927Y-93759333D01*
X141723240Y-93799199D01*
X141834310Y-93952073D01*
X141967927Y-94085690D01*
X142120801Y-94196760D01*
X142200347Y-94237290D01*
X142289163Y-94282545D01*
X142289165Y-94282545D01*
X142289168Y-94282547D01*
X142385497Y-94313846D01*
X142468881Y-94340940D01*
X142655514Y-94370500D01*
X142655519Y-94370500D01*
X142844486Y-94370500D01*
X143031118Y-94340940D01*
X143210832Y-94282547D01*
X143379199Y-94196760D01*
X143532073Y-94085690D01*
X143665690Y-93952073D01*
X143776760Y-93799199D01*
X143862547Y-93630832D01*
X143920940Y-93451118D01*
X143931058Y-93387234D01*
X143950500Y-93264486D01*
X143950500Y-93152940D01*
X143970185Y-93085901D01*
X143986819Y-93065259D01*
X151371788Y-85680290D01*
X151371790Y-85680287D01*
X151459390Y-85549185D01*
X151459390Y-85549184D01*
X151459394Y-85549179D01*
X151519737Y-85403497D01*
X151550500Y-85248842D01*
X151550500Y-83921158D01*
X151550500Y-78421158D01*
X151550500Y-78421155D01*
X151550499Y-78421153D01*
X151537384Y-78355220D01*
X151519737Y-78266503D01*
X151517991Y-78262287D01*
X151459397Y-78120827D01*
X151459390Y-78120814D01*
X151371790Y-77989712D01*
X151363862Y-77981784D01*
X151260289Y-77878211D01*
X150032854Y-76650776D01*
X148720292Y-75338213D01*
X148720288Y-75338210D01*
X148589185Y-75250609D01*
X148589172Y-75250602D01*
X148443501Y-75190264D01*
X148443489Y-75190261D01*
X148288845Y-75159500D01*
X148288842Y-75159500D01*
X147627916Y-75159500D01*
X147560877Y-75139815D01*
X147540235Y-75123181D01*
X147499499Y-75082445D01*
X147499494Y-75082441D01*
X147352997Y-74976006D01*
X147352996Y-74976005D01*
X147352994Y-74976004D01*
X147301300Y-74949664D01*
X147191639Y-74893788D01*
X147191636Y-74893787D01*
X147019410Y-74837829D01*
X146840551Y-74809500D01*
X146840546Y-74809500D01*
X146659454Y-74809500D01*
X146659449Y-74809500D01*
X146480589Y-74837829D01*
X146308363Y-74893787D01*
X146308360Y-74893788D01*
X146147002Y-74976006D01*
X146000505Y-75082441D01*
X146000500Y-75082445D01*
X145872445Y-75210500D01*
X145872441Y-75210505D01*
X145766006Y-75357002D01*
X145683788Y-75518360D01*
X145683787Y-75518363D01*
X145627829Y-75690589D01*
X145599500Y-75869448D01*
X145599500Y-76050551D01*
X145627829Y-76229410D01*
X145683787Y-76401636D01*
X145683788Y-76401639D01*
X145766006Y-76562997D01*
X145872441Y-76709494D01*
X145872445Y-76709499D01*
X146000500Y-76837554D01*
X146000505Y-76837558D01*
X146011390Y-76845466D01*
X146147006Y-76943996D01*
X146248780Y-76995853D01*
X146278684Y-77011090D01*
X146329480Y-77059065D01*
X146346275Y-77126886D01*
X146323737Y-77193021D01*
X146269022Y-77236472D01*
X146260708Y-77239506D01*
X146231781Y-77248905D01*
X146042442Y-77345379D01*
X145870540Y-77470272D01*
X145870535Y-77470276D01*
X145720276Y-77620535D01*
X145720272Y-77620540D01*
X145595379Y-77792442D01*
X145498903Y-77981784D01*
X145492985Y-77999998D01*
X145492986Y-78000000D01*
X146684174Y-78000000D01*
X146557007Y-78034075D01*
X146442993Y-78099901D01*
X146349901Y-78192993D01*
X146284075Y-78307007D01*
X146250000Y-78434174D01*
X146250000Y-78565826D01*
X146284075Y-78692993D01*
X146349901Y-78807007D01*
X146442993Y-78900099D01*
X146557007Y-78965925D01*
X146684174Y-79000000D01*
X145492986Y-79000000D01*
X145492985Y-79000001D01*
X145498903Y-79018215D01*
X145595379Y-79207557D01*
X145720272Y-79379459D01*
X145720276Y-79379464D01*
X145870535Y-79529723D01*
X145870540Y-79529727D01*
X146042439Y-79654619D01*
X146043205Y-79655009D01*
X146043445Y-79655236D01*
X146046598Y-79657168D01*
X146046192Y-79657829D01*
X146094006Y-79702978D01*
X146110809Y-79770797D01*
X146088278Y-79836935D01*
X146033568Y-79880392D01*
X145986923Y-79889500D01*
X145855144Y-79889500D01*
X145855117Y-79889502D01*
X145830012Y-79892413D01*
X145830008Y-79892415D01*
X145727235Y-79937793D01*
X145647794Y-80017234D01*
X145602415Y-80120006D01*
X145602415Y-80120008D01*
X145599500Y-80145131D01*
X145599500Y-81934856D01*
X145599502Y-81934882D01*
X145602413Y-81959987D01*
X145602415Y-81959991D01*
X145647793Y-82062764D01*
X145647794Y-82062765D01*
X145727235Y-82142206D01*
X145830009Y-82187585D01*
X145855135Y-82190500D01*
X147644864Y-82190499D01*
X147644879Y-82190497D01*
X147644882Y-82190497D01*
X147669987Y-82187586D01*
X147669988Y-82187585D01*
X147669991Y-82187585D01*
X147772765Y-82142206D01*
X147852206Y-82062765D01*
X147897585Y-81959991D01*
X147900500Y-81934865D01*
X147900499Y-80145136D01*
X147900497Y-80145117D01*
X147897586Y-80120012D01*
X147897585Y-80120010D01*
X147897585Y-80120009D01*
X147852206Y-80017235D01*
X147772765Y-79937794D01*
X147772763Y-79937793D01*
X147669992Y-79892415D01*
X147644868Y-79889500D01*
X147513079Y-79889500D01*
X147446040Y-79869815D01*
X147400285Y-79817011D01*
X147390341Y-79747853D01*
X147419366Y-79684297D01*
X147453606Y-79657502D01*
X147453402Y-79657168D01*
X147456317Y-79655381D01*
X147456787Y-79655014D01*
X147457556Y-79654622D01*
X147629459Y-79529727D01*
X147629464Y-79529723D01*
X147779723Y-79379464D01*
X147779727Y-79379459D01*
X147904620Y-79207557D01*
X148001096Y-79018215D01*
X148007014Y-79000001D01*
X148007014Y-79000000D01*
X146815826Y-79000000D01*
X146942993Y-78965925D01*
X147057007Y-78900099D01*
X147150099Y-78807007D01*
X147215925Y-78692993D01*
X147250000Y-78565826D01*
X147250000Y-78434174D01*
X147215925Y-78307007D01*
X147150099Y-78192993D01*
X147057007Y-78099901D01*
X146942993Y-78034075D01*
X146815826Y-78000000D01*
X148007014Y-78000000D01*
X148007014Y-77999998D01*
X148001096Y-77981784D01*
X147904620Y-77792442D01*
X147779727Y-77620540D01*
X147779723Y-77620535D01*
X147629464Y-77470276D01*
X147629459Y-77470272D01*
X147457557Y-77345379D01*
X147268217Y-77248904D01*
X147239292Y-77239506D01*
X147181616Y-77200068D01*
X147154418Y-77135710D01*
X147166333Y-77066863D01*
X147213577Y-77015388D01*
X147221315Y-77011090D01*
X147352994Y-76943996D01*
X147499501Y-76837553D01*
X147540235Y-76796819D01*
X147567162Y-76782115D01*
X147592981Y-76765523D01*
X147599181Y-76764631D01*
X147601558Y-76763334D01*
X147627916Y-76760500D01*
X147827060Y-76760500D01*
X147894099Y-76780185D01*
X147914741Y-76796819D01*
X149913181Y-78795259D01*
X149946666Y-78856582D01*
X149949500Y-78882940D01*
X149949500Y-84787060D01*
X149929815Y-84854099D01*
X149913181Y-84874741D01*
X142854741Y-91933181D01*
X142793418Y-91966666D01*
X142767060Y-91969500D01*
X142655514Y-91969500D01*
X142468881Y-91999059D01*
X142289163Y-92057454D01*
X142120800Y-92143240D01*
X142045560Y-92197906D01*
X141967927Y-92254310D01*
X141967925Y-92254312D01*
X141967924Y-92254312D01*
X141834312Y-92387924D01*
X141834312Y-92387925D01*
X141834310Y-92387927D01*
X141831226Y-92392172D01*
X141723240Y-92540800D01*
X141637454Y-92709163D01*
X141579059Y-92888881D01*
X141549500Y-93075513D01*
X124116914Y-93075513D01*
X124110090Y-93063694D01*
X124026306Y-92979910D01*
X123923694Y-92920667D01*
X123809244Y-92890000D01*
X123690756Y-92890000D01*
X123576306Y-92920667D01*
X123473694Y-92979910D01*
X123389910Y-93063694D01*
X123330667Y-93166306D01*
X123300000Y-93280756D01*
X114000500Y-93280756D01*
X114000500Y-92392155D01*
X122350000Y-92392155D01*
X122350000Y-92840000D01*
X123250000Y-92840000D01*
X124250000Y-92840000D01*
X125150000Y-92840000D01*
X125150000Y-92392172D01*
X125149999Y-92392155D01*
X125143598Y-92332627D01*
X125143596Y-92332620D01*
X125093354Y-92197913D01*
X125093350Y-92197906D01*
X125007190Y-92082812D01*
X125007187Y-92082809D01*
X124892093Y-91996649D01*
X124892086Y-91996645D01*
X124757379Y-91946403D01*
X124757372Y-91946401D01*
X124697844Y-91940000D01*
X124250000Y-91940000D01*
X124250000Y-92840000D01*
X123250000Y-92840000D01*
X123250000Y-91940000D01*
X122802155Y-91940000D01*
X122742627Y-91946401D01*
X122742620Y-91946403D01*
X122607913Y-91996645D01*
X122607906Y-91996649D01*
X122492812Y-92082809D01*
X122492809Y-92082812D01*
X122406649Y-92197906D01*
X122406645Y-92197913D01*
X122356403Y-92332620D01*
X122356401Y-92332627D01*
X122350000Y-92392155D01*
X114000500Y-92392155D01*
X114000500Y-83003919D01*
X116803184Y-83003919D01*
X116874197Y-83040102D01*
X117098752Y-83113065D01*
X117098751Y-83113065D01*
X117331948Y-83150000D01*
X117568052Y-83150000D01*
X117801247Y-83113065D01*
X118025797Y-83040104D01*
X118096814Y-83003919D01*
X117450001Y-82357106D01*
X117450000Y-82357106D01*
X116803184Y-83003919D01*
X114000500Y-83003919D01*
X114000500Y-81782939D01*
X114020185Y-81715900D01*
X114036814Y-81695263D01*
X114200130Y-81531947D01*
X115950000Y-81531947D01*
X115950000Y-81768052D01*
X115986934Y-82001247D01*
X116059898Y-82225805D01*
X116096078Y-82296813D01*
X116096079Y-82296814D01*
X116742894Y-81650000D01*
X116670485Y-81577591D01*
X116900000Y-81577591D01*
X116900000Y-81722409D01*
X116937482Y-81862292D01*
X117009890Y-81987708D01*
X117112292Y-82090110D01*
X117237708Y-82162518D01*
X117377591Y-82200000D01*
X117522409Y-82200000D01*
X117662292Y-82162518D01*
X117787708Y-82090110D01*
X117890110Y-81987708D01*
X117962518Y-81862292D01*
X118000000Y-81722409D01*
X118000000Y-81649999D01*
X118157106Y-81649999D01*
X118157106Y-81650000D01*
X118803919Y-82296814D01*
X118840104Y-82225797D01*
X118913065Y-82001247D01*
X118950000Y-81768052D01*
X118950000Y-81531947D01*
X118913065Y-81298752D01*
X118840102Y-81074197D01*
X118803919Y-81003184D01*
X118157106Y-81649999D01*
X118000000Y-81649999D01*
X118000000Y-81577591D01*
X117962518Y-81437708D01*
X117890110Y-81312292D01*
X117787708Y-81209890D01*
X117662292Y-81137482D01*
X117522409Y-81100000D01*
X117377591Y-81100000D01*
X117237708Y-81137482D01*
X117112292Y-81209890D01*
X117009890Y-81312292D01*
X116937482Y-81437708D01*
X116900000Y-81577591D01*
X116670485Y-81577591D01*
X116096078Y-81003184D01*
X116059894Y-81074202D01*
X116059894Y-81074203D01*
X115986934Y-81298751D01*
X115950000Y-81531947D01*
X114200130Y-81531947D01*
X115435999Y-80296078D01*
X116803184Y-80296078D01*
X117450000Y-80942894D01*
X117450001Y-80942894D01*
X118096814Y-80296079D01*
X118096813Y-80296078D01*
X118025805Y-80259898D01*
X117801247Y-80186934D01*
X117801248Y-80186934D01*
X117568052Y-80150000D01*
X117331948Y-80150000D01*
X117098751Y-80186934D01*
X116874203Y-80259894D01*
X116874202Y-80259894D01*
X116803184Y-80296078D01*
X115435999Y-80296078D01*
X117245978Y-78486098D01*
X117307299Y-78452615D01*
X117343404Y-78450165D01*
X117347643Y-78450499D01*
X117347648Y-78450500D01*
X117347653Y-78450500D01*
X117552351Y-78450500D01*
X117552352Y-78450500D01*
X117754534Y-78418477D01*
X117949219Y-78355220D01*
X118131610Y-78262287D01*
X118226986Y-78192993D01*
X118297213Y-78141971D01*
X118297215Y-78141968D01*
X118297219Y-78141966D01*
X118441966Y-77997219D01*
X118441968Y-77997215D01*
X118441971Y-77997213D01*
X118528429Y-77878212D01*
X118562287Y-77831610D01*
X118655220Y-77649219D01*
X118718477Y-77454534D01*
X118750500Y-77252352D01*
X118750500Y-77047648D01*
X118718477Y-76845466D01*
X118715906Y-76837554D01*
X118674299Y-76709501D01*
X118655220Y-76650781D01*
X118655218Y-76650778D01*
X118655218Y-76650776D01*
X118610490Y-76562994D01*
X118562287Y-76468390D01*
X118513788Y-76401636D01*
X118441971Y-76302786D01*
X118297213Y-76158028D01*
X118131613Y-76037715D01*
X118131612Y-76037714D01*
X118131610Y-76037713D01*
X118074653Y-76008691D01*
X117949223Y-75944781D01*
X117754534Y-75881522D01*
X117579995Y-75853878D01*
X117552352Y-75849500D01*
X117347648Y-75849500D01*
X117323329Y-75853351D01*
X117145465Y-75881522D01*
X116950776Y-75944781D01*
X116768386Y-76037715D01*
X116602786Y-76158028D01*
X116458028Y-76302786D01*
X116337715Y-76468386D01*
X116244781Y-76650776D01*
X116181522Y-76845465D01*
X116149500Y-77047648D01*
X116149500Y-77252359D01*
X116149835Y-77256619D01*
X116135467Y-77324996D01*
X116113898Y-77354022D01*
X113287680Y-80180240D01*
X113226357Y-80213725D01*
X113156665Y-80208741D01*
X113112318Y-80180240D01*
X110286100Y-77354022D01*
X110252615Y-77292699D01*
X110250165Y-77256592D01*
X110250498Y-77252359D01*
X110250500Y-77252352D01*
X110250500Y-77047648D01*
X110218477Y-76845466D01*
X110215906Y-76837554D01*
X110174299Y-76709501D01*
X110155220Y-76650781D01*
X110155218Y-76650778D01*
X110155218Y-76650776D01*
X110110490Y-76562994D01*
X110062287Y-76468390D01*
X110013788Y-76401636D01*
X109941971Y-76302786D01*
X109797213Y-76158028D01*
X109631613Y-76037715D01*
X109631612Y-76037714D01*
X109631610Y-76037713D01*
X109574653Y-76008691D01*
X109449223Y-75944781D01*
X109254534Y-75881522D01*
X109079995Y-75853878D01*
X109052352Y-75849500D01*
X108847648Y-75849500D01*
X108823329Y-75853351D01*
X108645465Y-75881522D01*
X108450776Y-75944781D01*
X108268386Y-76037715D01*
X108102786Y-76158028D01*
X107958028Y-76302786D01*
X107837715Y-76468386D01*
X107744781Y-76650776D01*
X107681522Y-76845465D01*
X107649500Y-77047648D01*
X105000000Y-77047648D01*
X105000000Y-66624500D01*
X105019685Y-66557461D01*
X105072489Y-66511706D01*
X105124000Y-66500500D01*
X125626000Y-66500500D01*
X125693039Y-66520185D01*
G37*
%TD.AperFunction*%
%TD*%
M02*
