%TF.GenerationSoftware,KiCad,Pcbnew,9.0.0*%
%TF.CreationDate,2025-03-25T16:41:30+02:00*%
%TF.ProjectId,aux,6175782e-6b69-4636-9164-5f7063625858,rev?*%
%TF.SameCoordinates,Original*%
%TF.FileFunction,Copper,L2,Bot*%
%TF.FilePolarity,Positive*%
%FSLAX46Y46*%
G04 Gerber Fmt 4.6, Leading zero omitted, Abs format (unit mm)*
G04 Created by KiCad (PCBNEW 9.0.0) date 2025-03-25 16:41:30*
%MOMM*%
%LPD*%
G01*
G04 APERTURE LIST*
G04 Aperture macros list*
%AMRoundRect*
0 Rectangle with rounded corners*
0 $1 Rounding radius*
0 $2 $3 $4 $5 $6 $7 $8 $9 X,Y pos of 4 corners*
0 Add a 4 corners polygon primitive as box body*
4,1,4,$2,$3,$4,$5,$6,$7,$8,$9,$2,$3,0*
0 Add four circle primitives for the rounded corners*
1,1,$1+$1,$2,$3*
1,1,$1+$1,$4,$5*
1,1,$1+$1,$6,$7*
1,1,$1+$1,$8,$9*
0 Add four rect primitives between the rounded corners*
20,1,$1+$1,$2,$3,$4,$5,0*
20,1,$1+$1,$4,$5,$6,$7,0*
20,1,$1+$1,$6,$7,$8,$9,0*
20,1,$1+$1,$8,$9,$2,$3,0*%
G04 Aperture macros list end*
%TA.AperFunction,ComponentPad*%
%ADD10R,1.800000X1.800000*%
%TD*%
%TA.AperFunction,ComponentPad*%
%ADD11O,1.800000X1.800000*%
%TD*%
%TA.AperFunction,ComponentPad*%
%ADD12C,2.000000*%
%TD*%
%TA.AperFunction,ComponentPad*%
%ADD13RoundRect,0.250000X-0.350000X-0.625000X0.350000X-0.625000X0.350000X0.625000X-0.350000X0.625000X0*%
%TD*%
%TA.AperFunction,ComponentPad*%
%ADD14O,1.200000X1.750000*%
%TD*%
%TA.AperFunction,ComponentPad*%
%ADD15C,1.800000*%
%TD*%
%TA.AperFunction,ComponentPad*%
%ADD16R,1.700000X1.700000*%
%TD*%
%TA.AperFunction,ComponentPad*%
%ADD17O,1.700000X1.700000*%
%TD*%
%TA.AperFunction,ComponentPad*%
%ADD18C,2.340000*%
%TD*%
G04 APERTURE END LIST*
D10*
%TO.P,D1,1,K*%
%TO.N,AUX_DETECT*%
X123750000Y-93340000D03*
D11*
%TO.P,D1,2,A*%
%TO.N,Net-(D1-A)*%
X123750000Y-103500000D03*
%TD*%
D12*
%TO.P,SW2,1,1*%
%TO.N,AUX_DIGITAL*%
X108950000Y-77150000D03*
X117450000Y-77150000D03*
%TO.P,SW2,2,2*%
%TO.N,AUX_DETECT*%
X108950000Y-81650000D03*
X117450000Y-81650000D03*
%TD*%
D13*
%TO.P,J5,1,Pin_1*%
%TO.N,Net-(D1-A)*%
X130750000Y-107500000D03*
D14*
%TO.P,J5,2,Pin_2*%
%TO.N,AUX_DETECT*%
X132750000Y-107500000D03*
%TO.P,J5,3,Pin_3*%
%TO.N,AUX_DIGITAL*%
X134750000Y-107500000D03*
%TO.P,J5,4,Pin_4*%
%TO.N,AUX_ANALOG*%
X136750000Y-107500000D03*
%TO.P,J5,5,Pin_5*%
%TO.N,GND*%
X138750000Y-107500000D03*
%TD*%
D10*
%TO.P,SW3,1,1*%
%TO.N,AUX_DIGITAL*%
X130250000Y-101922500D03*
D15*
%TO.P,SW3,2,2*%
%TO.N,AUX_DETECT*%
X130250000Y-99422500D03*
%TO.P,SW3,3*%
%TO.N,N/C*%
X130250000Y-96922500D03*
%TO.P,SW3,4*%
X136250000Y-101922500D03*
%TO.P,SW3,5*%
X136250000Y-99422500D03*
%TO.P,SW3,6*%
X136250000Y-96922500D03*
%TD*%
D10*
%TO.P,D4,1,K*%
%TO.N,AUX_DIGITAL*%
X142750000Y-103330000D03*
D11*
%TO.P,D4,2,A*%
%TO.N,Net-(D4-A)*%
X142750000Y-93170000D03*
%TD*%
D12*
%TO.P,SW1,1,1*%
%TO.N,AUX_DIGITAL*%
X116425000Y-101650000D03*
X109925000Y-101650000D03*
%TO.P,SW1,2,2*%
%TO.N,AUX_DETECT*%
X116425000Y-97150000D03*
X109925000Y-97150000D03*
%TD*%
D16*
%TO.P,J1,1,Pin_1*%
%TO.N,GND*%
X146750000Y-81040000D03*
D17*
%TO.P,J1,2,Pin_2*%
%TO.N,AUX_DETECT*%
X146750000Y-78500000D03*
%TO.P,J1,3,Pin_3*%
%TO.N,Net-(D4-A)*%
X146750000Y-75960000D03*
%TD*%
D18*
%TO.P,RV1,1,1*%
%TO.N,AUX_DETECT*%
X149500000Y-104750000D03*
%TO.P,RV1,2,2*%
%TO.N,AUX_ANALOG*%
X149500000Y-99750000D03*
%TO.P,RV1,3,3*%
%TO.N,GND*%
X149500000Y-94750000D03*
%TD*%
%TA.AperFunction,Conductor*%
%TO.N,GND*%
G36*
X125693039Y-66520185D02*
G01*
X125738794Y-66572989D01*
X125750000Y-66624500D01*
X125750000Y-90500000D01*
X140250000Y-90500000D01*
X140250000Y-81937844D01*
X145400000Y-81937844D01*
X145406401Y-81997372D01*
X145406403Y-81997379D01*
X145456645Y-82132086D01*
X145456649Y-82132093D01*
X145542809Y-82247187D01*
X145542812Y-82247190D01*
X145657906Y-82333350D01*
X145657913Y-82333354D01*
X145792620Y-82383596D01*
X145792627Y-82383598D01*
X145852155Y-82389999D01*
X145852172Y-82390000D01*
X146250000Y-82390000D01*
X147250000Y-82390000D01*
X147647828Y-82390000D01*
X147647844Y-82389999D01*
X147707372Y-82383598D01*
X147707379Y-82383596D01*
X147842086Y-82333354D01*
X147842093Y-82333350D01*
X147957187Y-82247190D01*
X147957190Y-82247187D01*
X148043350Y-82132093D01*
X148043354Y-82132086D01*
X148093596Y-81997379D01*
X148093598Y-81997372D01*
X148099999Y-81937844D01*
X148100000Y-81937827D01*
X148100000Y-81540000D01*
X147250000Y-81540000D01*
X147250000Y-82390000D01*
X146250000Y-82390000D01*
X146250000Y-81540000D01*
X145400000Y-81540000D01*
X145400000Y-81937844D01*
X140250000Y-81937844D01*
X140250000Y-80142155D01*
X145400000Y-80142155D01*
X145400000Y-80540000D01*
X146684174Y-80540000D01*
X146557007Y-80574075D01*
X146442993Y-80639901D01*
X146349901Y-80732993D01*
X146284075Y-80847007D01*
X146250000Y-80974174D01*
X146250000Y-81105826D01*
X146284075Y-81232993D01*
X146349901Y-81347007D01*
X146442993Y-81440099D01*
X146557007Y-81505925D01*
X146684174Y-81540000D01*
X146815826Y-81540000D01*
X146942993Y-81505925D01*
X147057007Y-81440099D01*
X147150099Y-81347007D01*
X147215925Y-81232993D01*
X147250000Y-81105826D01*
X147250000Y-80974174D01*
X147215925Y-80847007D01*
X147150099Y-80732993D01*
X147057007Y-80639901D01*
X146942993Y-80574075D01*
X146815826Y-80540000D01*
X148100000Y-80540000D01*
X148100000Y-80142172D01*
X148099999Y-80142155D01*
X148093598Y-80082627D01*
X148093596Y-80082620D01*
X148043354Y-79947913D01*
X148043350Y-79947906D01*
X147957190Y-79832812D01*
X147957187Y-79832809D01*
X147842093Y-79746649D01*
X147842086Y-79746645D01*
X147707379Y-79696403D01*
X147707372Y-79696401D01*
X147647844Y-79690000D01*
X147451087Y-79690000D01*
X147384048Y-79670315D01*
X147338293Y-79617511D01*
X147328349Y-79548353D01*
X147357374Y-79484797D01*
X147378202Y-79465682D01*
X147499495Y-79377558D01*
X147499497Y-79377555D01*
X147499501Y-79377553D01*
X147627553Y-79249501D01*
X147733996Y-79102994D01*
X147816211Y-78941639D01*
X147872171Y-78769409D01*
X147886765Y-78677259D01*
X147900500Y-78590551D01*
X147900500Y-78409448D01*
X147877191Y-78262287D01*
X147872171Y-78230591D01*
X147816211Y-78058361D01*
X147816211Y-78058360D01*
X147785054Y-77997213D01*
X147733996Y-77897006D01*
X147720396Y-77878287D01*
X147627558Y-77750505D01*
X147627554Y-77750500D01*
X147499499Y-77622445D01*
X147499494Y-77622441D01*
X147352997Y-77516006D01*
X147352996Y-77516005D01*
X147352994Y-77516004D01*
X147301300Y-77489664D01*
X147191639Y-77433788D01*
X147191636Y-77433787D01*
X147019410Y-77377829D01*
X146859321Y-77352473D01*
X146796186Y-77322544D01*
X146759255Y-77263232D01*
X146760253Y-77193370D01*
X146798863Y-77135137D01*
X146859321Y-77107527D01*
X146929425Y-77096422D01*
X147019409Y-77082171D01*
X147191639Y-77026211D01*
X147352994Y-76943996D01*
X147499501Y-76837553D01*
X147627553Y-76709501D01*
X147733996Y-76562994D01*
X147816211Y-76401639D01*
X147872171Y-76229409D01*
X147886765Y-76137259D01*
X147900500Y-76050551D01*
X147900500Y-75869448D01*
X147884019Y-75765397D01*
X147872171Y-75690591D01*
X147816211Y-75518361D01*
X147816211Y-75518360D01*
X147787740Y-75462484D01*
X147733996Y-75357006D01*
X147720396Y-75338287D01*
X147627558Y-75210505D01*
X147627554Y-75210500D01*
X147499499Y-75082445D01*
X147499494Y-75082441D01*
X147352997Y-74976006D01*
X147352996Y-74976005D01*
X147352994Y-74976004D01*
X147301300Y-74949664D01*
X147191639Y-74893788D01*
X147191636Y-74893787D01*
X147019410Y-74837829D01*
X146840551Y-74809500D01*
X146840546Y-74809500D01*
X146659454Y-74809500D01*
X146659449Y-74809500D01*
X146480589Y-74837829D01*
X146308363Y-74893787D01*
X146308360Y-74893788D01*
X146147002Y-74976006D01*
X146000505Y-75082441D01*
X146000500Y-75082445D01*
X145872445Y-75210500D01*
X145872441Y-75210505D01*
X145766006Y-75357002D01*
X145683788Y-75518360D01*
X145683787Y-75518363D01*
X145627829Y-75690589D01*
X145599500Y-75869448D01*
X145599500Y-76050551D01*
X145627829Y-76229410D01*
X145683787Y-76401636D01*
X145683788Y-76401639D01*
X145766006Y-76562997D01*
X145872441Y-76709494D01*
X145872445Y-76709499D01*
X146000500Y-76837554D01*
X146000505Y-76837558D01*
X146011390Y-76845466D01*
X146147006Y-76943996D01*
X146252484Y-76997740D01*
X146308360Y-77026211D01*
X146308363Y-77026212D01*
X146374338Y-77047648D01*
X146480591Y-77082171D01*
X146553639Y-77093740D01*
X146640678Y-77107527D01*
X146703813Y-77137456D01*
X146740744Y-77196768D01*
X146739746Y-77266631D01*
X146701136Y-77324863D01*
X146640678Y-77352473D01*
X146480589Y-77377829D01*
X146308363Y-77433787D01*
X146308360Y-77433788D01*
X146147002Y-77516006D01*
X146000505Y-77622441D01*
X146000500Y-77622445D01*
X145872445Y-77750500D01*
X145872441Y-77750505D01*
X145766006Y-77897002D01*
X145683788Y-78058360D01*
X145683787Y-78058363D01*
X145627829Y-78230589D01*
X145599500Y-78409448D01*
X145599500Y-78590551D01*
X145627829Y-78769410D01*
X145683787Y-78941636D01*
X145683788Y-78941639D01*
X145766006Y-79102997D01*
X145872441Y-79249494D01*
X145872445Y-79249499D01*
X146000504Y-79377558D01*
X146121798Y-79465682D01*
X146164464Y-79521011D01*
X146170443Y-79590625D01*
X146137838Y-79652420D01*
X146076999Y-79686777D01*
X146048913Y-79690000D01*
X145852155Y-79690000D01*
X145792627Y-79696401D01*
X145792620Y-79696403D01*
X145657913Y-79746645D01*
X145657906Y-79746649D01*
X145542812Y-79832809D01*
X145542809Y-79832812D01*
X145456649Y-79947906D01*
X145456645Y-79947913D01*
X145406403Y-80082620D01*
X145406401Y-80082627D01*
X145400000Y-80142155D01*
X140250000Y-80142155D01*
X140250000Y-66624500D01*
X140269685Y-66557461D01*
X140322489Y-66511706D01*
X140374000Y-66500500D01*
X154334108Y-66500500D01*
X154395572Y-66500500D01*
X154404418Y-66500816D01*
X154604561Y-66515130D01*
X154622063Y-66517647D01*
X154813797Y-66559355D01*
X154830755Y-66564334D01*
X154992064Y-66624500D01*
X155014609Y-66632909D01*
X155030701Y-66640259D01*
X155202904Y-66734288D01*
X155217784Y-66743849D01*
X155374867Y-66861441D01*
X155388237Y-66873027D01*
X155526972Y-67011762D01*
X155538558Y-67025132D01*
X155656146Y-67182210D01*
X155665711Y-67197095D01*
X155759740Y-67369298D01*
X155767090Y-67385390D01*
X155835662Y-67569236D01*
X155840646Y-67586212D01*
X155882351Y-67777931D01*
X155884869Y-67795443D01*
X155899181Y-67995557D01*
X155899497Y-68004443D01*
X155885309Y-112125996D01*
X155885286Y-112126362D01*
X155885286Y-112195572D01*
X155884970Y-112204419D01*
X155870655Y-112404556D01*
X155868137Y-112422067D01*
X155826432Y-112613785D01*
X155821448Y-112630761D01*
X155752877Y-112814605D01*
X155745527Y-112830698D01*
X155651497Y-113002900D01*
X155641932Y-113017784D01*
X155524348Y-113174857D01*
X155512762Y-113188228D01*
X155374017Y-113326972D01*
X155360646Y-113338557D01*
X155203581Y-113456134D01*
X155188697Y-113465700D01*
X155016483Y-113559734D01*
X155000390Y-113567083D01*
X154816552Y-113635650D01*
X154799577Y-113640634D01*
X154607858Y-113682339D01*
X154590345Y-113684857D01*
X154390221Y-113699169D01*
X154381376Y-113699485D01*
X105124000Y-113699493D01*
X105056961Y-113679808D01*
X105011206Y-113627004D01*
X105000000Y-113575493D01*
X105000000Y-106831898D01*
X129849500Y-106831898D01*
X129849500Y-108168102D01*
X129853516Y-108201541D01*
X129860122Y-108256561D01*
X129915639Y-108397343D01*
X130007077Y-108517922D01*
X130127656Y-108609360D01*
X130127657Y-108609360D01*
X130127658Y-108609361D01*
X130268436Y-108664877D01*
X130356898Y-108675500D01*
X130356903Y-108675500D01*
X131143097Y-108675500D01*
X131143102Y-108675500D01*
X131231564Y-108664877D01*
X131372342Y-108609361D01*
X131492922Y-108517922D01*
X131584361Y-108397342D01*
X131639877Y-108256564D01*
X131650500Y-108168102D01*
X131650500Y-108097080D01*
X131670185Y-108030041D01*
X131722989Y-107984286D01*
X131792147Y-107974342D01*
X131855703Y-108003367D01*
X131889061Y-108049628D01*
X131951983Y-108201541D01*
X131951990Y-108201553D01*
X132050535Y-108349034D01*
X132050538Y-108349038D01*
X132175961Y-108474461D01*
X132175965Y-108474464D01*
X132323446Y-108573009D01*
X132323459Y-108573016D01*
X132446363Y-108623923D01*
X132487334Y-108640894D01*
X132487336Y-108640894D01*
X132487341Y-108640896D01*
X132661304Y-108675499D01*
X132661307Y-108675500D01*
X132661309Y-108675500D01*
X132838693Y-108675500D01*
X132838694Y-108675499D01*
X132896682Y-108663964D01*
X133012658Y-108640896D01*
X133012661Y-108640894D01*
X133012666Y-108640894D01*
X133176547Y-108573013D01*
X133324035Y-108474464D01*
X133449464Y-108349035D01*
X133548013Y-108201547D01*
X133615894Y-108037666D01*
X133616906Y-108032581D01*
X133628383Y-107974882D01*
X133660768Y-107912971D01*
X133721483Y-107878397D01*
X133791253Y-107882136D01*
X133847925Y-107923003D01*
X133871617Y-107974882D01*
X133884103Y-108037658D01*
X133884106Y-108037667D01*
X133951983Y-108201540D01*
X133951990Y-108201553D01*
X134050535Y-108349034D01*
X134050538Y-108349038D01*
X134175961Y-108474461D01*
X134175965Y-108474464D01*
X134323446Y-108573009D01*
X134323459Y-108573016D01*
X134446363Y-108623923D01*
X134487334Y-108640894D01*
X134487336Y-108640894D01*
X134487341Y-108640896D01*
X134661304Y-108675499D01*
X134661307Y-108675500D01*
X134661309Y-108675500D01*
X134838693Y-108675500D01*
X134838694Y-108675499D01*
X134896682Y-108663964D01*
X135012658Y-108640896D01*
X135012661Y-108640894D01*
X135012666Y-108640894D01*
X135176547Y-108573013D01*
X135324035Y-108474464D01*
X135449464Y-108349035D01*
X135548013Y-108201547D01*
X135615894Y-108037666D01*
X135616906Y-108032581D01*
X135628383Y-107974882D01*
X135660768Y-107912971D01*
X135721483Y-107878397D01*
X135791253Y-107882136D01*
X135847925Y-107923003D01*
X135871617Y-107974882D01*
X135884103Y-108037658D01*
X135884106Y-108037667D01*
X135951983Y-108201540D01*
X135951990Y-108201553D01*
X136050535Y-108349034D01*
X136050538Y-108349038D01*
X136175961Y-108474461D01*
X136175965Y-108474464D01*
X136323446Y-108573009D01*
X136323459Y-108573016D01*
X136446363Y-108623923D01*
X136487334Y-108640894D01*
X136487336Y-108640894D01*
X136487341Y-108640896D01*
X136661304Y-108675499D01*
X136661307Y-108675500D01*
X136661309Y-108675500D01*
X136838693Y-108675500D01*
X136838694Y-108675499D01*
X136896682Y-108663964D01*
X137012658Y-108640896D01*
X137012661Y-108640894D01*
X137012666Y-108640894D01*
X137176547Y-108573013D01*
X137324035Y-108474464D01*
X137449464Y-108349035D01*
X137535302Y-108220569D01*
X137588914Y-108175765D01*
X137658239Y-108167058D01*
X137721267Y-108197212D01*
X137748889Y-108233166D01*
X137809195Y-108351524D01*
X137910967Y-108491602D01*
X138033397Y-108614032D01*
X138173478Y-108715805D01*
X138250000Y-108754794D01*
X139250000Y-108754794D01*
X139326521Y-108715805D01*
X139466602Y-108614032D01*
X139589032Y-108491602D01*
X139690804Y-108351524D01*
X139769408Y-108197255D01*
X139822914Y-108032581D01*
X139828075Y-108000000D01*
X139250000Y-108000000D01*
X139250000Y-108754794D01*
X138250000Y-108754794D01*
X138250000Y-107450630D01*
X138375000Y-107450630D01*
X138375000Y-107549370D01*
X138400556Y-107644745D01*
X138449925Y-107730255D01*
X138519745Y-107800075D01*
X138605255Y-107849444D01*
X138700630Y-107875000D01*
X138799370Y-107875000D01*
X138894745Y-107849444D01*
X138980255Y-107800075D01*
X139050075Y-107730255D01*
X139099444Y-107644745D01*
X139125000Y-107549370D01*
X139125000Y-107450630D01*
X139099444Y-107355255D01*
X139050075Y-107269745D01*
X138980255Y-107199925D01*
X138894745Y-107150556D01*
X138799370Y-107125000D01*
X138700630Y-107125000D01*
X138605255Y-107150556D01*
X138519745Y-107199925D01*
X138449925Y-107269745D01*
X138400556Y-107355255D01*
X138375000Y-107450630D01*
X138250000Y-107450630D01*
X138250000Y-107000000D01*
X139250000Y-107000000D01*
X139828075Y-107000000D01*
X139822914Y-106967418D01*
X139769408Y-106802744D01*
X139690804Y-106648475D01*
X139589032Y-106508397D01*
X139466602Y-106385967D01*
X139326521Y-106284194D01*
X139250000Y-106245203D01*
X139250000Y-107000000D01*
X138250000Y-107000000D01*
X138250000Y-106245204D01*
X138249999Y-106245203D01*
X138173478Y-106284194D01*
X138033397Y-106385967D01*
X137910967Y-106508397D01*
X137809195Y-106648475D01*
X137748889Y-106766833D01*
X137700914Y-106817629D01*
X137633093Y-106834424D01*
X137566958Y-106811886D01*
X137535302Y-106779429D01*
X137449464Y-106650965D01*
X137449461Y-106650961D01*
X137324038Y-106525538D01*
X137324034Y-106525535D01*
X137176553Y-106426990D01*
X137176540Y-106426983D01*
X137012667Y-106359106D01*
X137012658Y-106359103D01*
X136838694Y-106324500D01*
X136838691Y-106324500D01*
X136661309Y-106324500D01*
X136661306Y-106324500D01*
X136487341Y-106359103D01*
X136487332Y-106359106D01*
X136323459Y-106426983D01*
X136323446Y-106426990D01*
X136175965Y-106525535D01*
X136175961Y-106525538D01*
X136050538Y-106650961D01*
X136050535Y-106650965D01*
X135951990Y-106798446D01*
X135951983Y-106798459D01*
X135884106Y-106962332D01*
X135884104Y-106962340D01*
X135871617Y-107025118D01*
X135839232Y-107087028D01*
X135778516Y-107121603D01*
X135708747Y-107117863D01*
X135652075Y-107076996D01*
X135628383Y-107025118D01*
X135615895Y-106962340D01*
X135615894Y-106962334D01*
X135562913Y-106834424D01*
X135548016Y-106798459D01*
X135548009Y-106798446D01*
X135449464Y-106650965D01*
X135449461Y-106650961D01*
X135324038Y-106525538D01*
X135324034Y-106525535D01*
X135176553Y-106426990D01*
X135176540Y-106426983D01*
X135012667Y-106359106D01*
X135012658Y-106359103D01*
X134838694Y-106324500D01*
X134838691Y-106324500D01*
X134661309Y-106324500D01*
X134661306Y-106324500D01*
X134487341Y-106359103D01*
X134487332Y-106359106D01*
X134323459Y-106426983D01*
X134323446Y-106426990D01*
X134175965Y-106525535D01*
X134175961Y-106525538D01*
X134050538Y-106650961D01*
X134050535Y-106650965D01*
X133951990Y-106798446D01*
X133951983Y-106798459D01*
X133884106Y-106962332D01*
X133884104Y-106962340D01*
X133871617Y-107025118D01*
X133839232Y-107087028D01*
X133778516Y-107121603D01*
X133708747Y-107117863D01*
X133652075Y-107076996D01*
X133628383Y-107025118D01*
X133615895Y-106962340D01*
X133615894Y-106962334D01*
X133562913Y-106834424D01*
X133548016Y-106798459D01*
X133548009Y-106798446D01*
X133449464Y-106650965D01*
X133449461Y-106650961D01*
X133324038Y-106525538D01*
X133324034Y-106525535D01*
X133176553Y-106426990D01*
X133176540Y-106426983D01*
X133012667Y-106359106D01*
X133012658Y-106359103D01*
X132838694Y-106324500D01*
X132838691Y-106324500D01*
X132661309Y-106324500D01*
X132661306Y-106324500D01*
X132487341Y-106359103D01*
X132487332Y-106359106D01*
X132323459Y-106426983D01*
X132323446Y-106426990D01*
X132175965Y-106525535D01*
X132175961Y-106525538D01*
X132050538Y-106650961D01*
X132050535Y-106650965D01*
X131951990Y-106798446D01*
X131951983Y-106798459D01*
X131889061Y-106950371D01*
X131845221Y-107004775D01*
X131778927Y-107026840D01*
X131711227Y-107009561D01*
X131663616Y-106958424D01*
X131650500Y-106902919D01*
X131650500Y-106831903D01*
X131650500Y-106831898D01*
X131639877Y-106743436D01*
X131584361Y-106602658D01*
X131584360Y-106602657D01*
X131584360Y-106602656D01*
X131492922Y-106482077D01*
X131372343Y-106390639D01*
X131231561Y-106335122D01*
X131185926Y-106329642D01*
X131143102Y-106324500D01*
X130356898Y-106324500D01*
X130317853Y-106329188D01*
X130268438Y-106335122D01*
X130127656Y-106390639D01*
X130007077Y-106482077D01*
X129915639Y-106602656D01*
X129860122Y-106743438D01*
X129857313Y-106766833D01*
X129849500Y-106831898D01*
X105000000Y-106831898D01*
X105000000Y-103405513D01*
X122549500Y-103405513D01*
X122549500Y-103594486D01*
X122579059Y-103781118D01*
X122637454Y-103960836D01*
X122723240Y-104129199D01*
X122834310Y-104282073D01*
X122967927Y-104415690D01*
X123120801Y-104526760D01*
X123200347Y-104567290D01*
X123289163Y-104612545D01*
X123289165Y-104612545D01*
X123289168Y-104612547D01*
X123356021Y-104634269D01*
X123468881Y-104670940D01*
X123655514Y-104700500D01*
X123655519Y-104700500D01*
X123844486Y-104700500D01*
X124031118Y-104670940D01*
X124143979Y-104634269D01*
X148029500Y-104634269D01*
X148029500Y-104865730D01*
X148065709Y-105094344D01*
X148137232Y-105314473D01*
X148137233Y-105314476D01*
X148242318Y-105520713D01*
X148378359Y-105707959D01*
X148378363Y-105707964D01*
X148542035Y-105871636D01*
X148542040Y-105871640D01*
X148705366Y-105990302D01*
X148729290Y-106007684D01*
X148864106Y-106076376D01*
X148935523Y-106112766D01*
X148935526Y-106112767D01*
X149045590Y-106148528D01*
X149155657Y-106184291D01*
X149384269Y-106220500D01*
X149384270Y-106220500D01*
X149615730Y-106220500D01*
X149615731Y-106220500D01*
X149844343Y-106184291D01*
X150064476Y-106112766D01*
X150270710Y-106007684D01*
X150457966Y-105871635D01*
X150621635Y-105707966D01*
X150757684Y-105520710D01*
X150862766Y-105314476D01*
X150934291Y-105094343D01*
X150970500Y-104865731D01*
X150970500Y-104634269D01*
X150934291Y-104405657D01*
X150862766Y-104185524D01*
X150862766Y-104185523D01*
X150826376Y-104114106D01*
X150757684Y-103979290D01*
X150740302Y-103955366D01*
X150621640Y-103792040D01*
X150621636Y-103792035D01*
X150457964Y-103628363D01*
X150457959Y-103628359D01*
X150270713Y-103492318D01*
X150270712Y-103492317D01*
X150270710Y-103492316D01*
X150204638Y-103458650D01*
X150064476Y-103387233D01*
X150064473Y-103387232D01*
X149844344Y-103315709D01*
X149730037Y-103297604D01*
X149615731Y-103279500D01*
X149384269Y-103279500D01*
X149308065Y-103291569D01*
X149155655Y-103315709D01*
X148935526Y-103387232D01*
X148935523Y-103387233D01*
X148729286Y-103492318D01*
X148542040Y-103628359D01*
X148542035Y-103628363D01*
X148378363Y-103792035D01*
X148378359Y-103792040D01*
X148242318Y-103979286D01*
X148137233Y-104185523D01*
X148137232Y-104185526D01*
X148065709Y-104405655D01*
X148029500Y-104634269D01*
X124143979Y-104634269D01*
X124210832Y-104612547D01*
X124379199Y-104526760D01*
X124532073Y-104415690D01*
X124665690Y-104282073D01*
X124776760Y-104129199D01*
X124862547Y-103960832D01*
X124920940Y-103781118D01*
X124950500Y-103594486D01*
X124950500Y-103405513D01*
X124920940Y-103218881D01*
X124889786Y-103123000D01*
X124862547Y-103039168D01*
X124862545Y-103039165D01*
X124862545Y-103039163D01*
X124801052Y-102918477D01*
X124776760Y-102870801D01*
X124665690Y-102717927D01*
X124532073Y-102584310D01*
X124379199Y-102473240D01*
X124210836Y-102387454D01*
X124031118Y-102329059D01*
X123844486Y-102299500D01*
X123844481Y-102299500D01*
X123655519Y-102299500D01*
X123655514Y-102299500D01*
X123468881Y-102329059D01*
X123289163Y-102387454D01*
X123120800Y-102473240D01*
X123033579Y-102536610D01*
X122967927Y-102584310D01*
X122967925Y-102584312D01*
X122967924Y-102584312D01*
X122834312Y-102717924D01*
X122834312Y-102717925D01*
X122834310Y-102717927D01*
X122786610Y-102783579D01*
X122723240Y-102870800D01*
X122637454Y-103039163D01*
X122579059Y-103218881D01*
X122549500Y-103405513D01*
X105000000Y-103405513D01*
X105000000Y-101547648D01*
X108624500Y-101547648D01*
X108624500Y-101752351D01*
X108656522Y-101954534D01*
X108719781Y-102149223D01*
X108774816Y-102257234D01*
X108811413Y-102329059D01*
X108812715Y-102331613D01*
X108933028Y-102497213D01*
X109077786Y-102641971D01*
X109182330Y-102717925D01*
X109243390Y-102762287D01*
X109359607Y-102821503D01*
X109425776Y-102855218D01*
X109425778Y-102855218D01*
X109425781Y-102855220D01*
X109530137Y-102889127D01*
X109620465Y-102918477D01*
X109721557Y-102934488D01*
X109822648Y-102950500D01*
X109822649Y-102950500D01*
X110027351Y-102950500D01*
X110027352Y-102950500D01*
X110229534Y-102918477D01*
X110424219Y-102855220D01*
X110606610Y-102762287D01*
X110699590Y-102694732D01*
X110772213Y-102641971D01*
X110772215Y-102641968D01*
X110772219Y-102641966D01*
X110916966Y-102497219D01*
X110916968Y-102497215D01*
X110916971Y-102497213D01*
X110999709Y-102383332D01*
X111037287Y-102331610D01*
X111130220Y-102149219D01*
X111193477Y-101954534D01*
X111225500Y-101752352D01*
X111225500Y-101547648D01*
X115124500Y-101547648D01*
X115124500Y-101752351D01*
X115156522Y-101954534D01*
X115219781Y-102149223D01*
X115274816Y-102257234D01*
X115311413Y-102329059D01*
X115312715Y-102331613D01*
X115433028Y-102497213D01*
X115577786Y-102641971D01*
X115682330Y-102717925D01*
X115743390Y-102762287D01*
X115859607Y-102821503D01*
X115925776Y-102855218D01*
X115925778Y-102855218D01*
X115925781Y-102855220D01*
X116030137Y-102889127D01*
X116120465Y-102918477D01*
X116221557Y-102934488D01*
X116322648Y-102950500D01*
X116322649Y-102950500D01*
X116527351Y-102950500D01*
X116527352Y-102950500D01*
X116729534Y-102918477D01*
X116924219Y-102855220D01*
X117106610Y-102762287D01*
X117199590Y-102694732D01*
X117272213Y-102641971D01*
X117272215Y-102641968D01*
X117272219Y-102641966D01*
X117416966Y-102497219D01*
X117416968Y-102497215D01*
X117416971Y-102497213D01*
X117499709Y-102383332D01*
X117537287Y-102331610D01*
X117630220Y-102149219D01*
X117693477Y-101954534D01*
X117725500Y-101752352D01*
X117725500Y-101547648D01*
X117693477Y-101345466D01*
X117630220Y-101150781D01*
X117630218Y-101150778D01*
X117630218Y-101150776D01*
X117557308Y-101007684D01*
X117537287Y-100968390D01*
X117525747Y-100952506D01*
X117416971Y-100802786D01*
X117272213Y-100658028D01*
X117106613Y-100537715D01*
X117106612Y-100537714D01*
X117106610Y-100537713D01*
X117049653Y-100508691D01*
X116924223Y-100444781D01*
X116729534Y-100381522D01*
X116554995Y-100353878D01*
X116527352Y-100349500D01*
X116322648Y-100349500D01*
X116298329Y-100353351D01*
X116120465Y-100381522D01*
X115925776Y-100444781D01*
X115743386Y-100537715D01*
X115577786Y-100658028D01*
X115433028Y-100802786D01*
X115312715Y-100968386D01*
X115219781Y-101150776D01*
X115156522Y-101345465D01*
X115124500Y-101547648D01*
X111225500Y-101547648D01*
X111193477Y-101345466D01*
X111130220Y-101150781D01*
X111130218Y-101150778D01*
X111130218Y-101150776D01*
X111057308Y-101007684D01*
X111037287Y-100968390D01*
X111025747Y-100952506D01*
X110916971Y-100802786D01*
X110772213Y-100658028D01*
X110606613Y-100537715D01*
X110606612Y-100537714D01*
X110606610Y-100537713D01*
X110549653Y-100508691D01*
X110424223Y-100444781D01*
X110229534Y-100381522D01*
X110054995Y-100353878D01*
X110027352Y-100349500D01*
X109822648Y-100349500D01*
X109798329Y-100353351D01*
X109620465Y-100381522D01*
X109425776Y-100444781D01*
X109243386Y-100537715D01*
X109077786Y-100658028D01*
X108933028Y-100802786D01*
X108812715Y-100968386D01*
X108719781Y-101150776D01*
X108656522Y-101345465D01*
X108624500Y-101547648D01*
X105000000Y-101547648D01*
X105000000Y-97047648D01*
X108624500Y-97047648D01*
X108624500Y-97252351D01*
X108656522Y-97454534D01*
X108719781Y-97649223D01*
X108812715Y-97831613D01*
X108933028Y-97997213D01*
X109077786Y-98141971D01*
X109187939Y-98222000D01*
X109243390Y-98262287D01*
X109359607Y-98321503D01*
X109425776Y-98355218D01*
X109425778Y-98355218D01*
X109425781Y-98355220D01*
X109524304Y-98387232D01*
X109620465Y-98418477D01*
X109721557Y-98434488D01*
X109822648Y-98450500D01*
X109822649Y-98450500D01*
X110027351Y-98450500D01*
X110027352Y-98450500D01*
X110229534Y-98418477D01*
X110424219Y-98355220D01*
X110606610Y-98262287D01*
X110710737Y-98186635D01*
X110772213Y-98141971D01*
X110772215Y-98141968D01*
X110772219Y-98141966D01*
X110916966Y-97997219D01*
X110916968Y-97997215D01*
X110916971Y-97997213D01*
X111032506Y-97838190D01*
X111037287Y-97831610D01*
X111130220Y-97649219D01*
X111193477Y-97454534D01*
X111225500Y-97252352D01*
X111225500Y-97047648D01*
X115124500Y-97047648D01*
X115124500Y-97252351D01*
X115156522Y-97454534D01*
X115219781Y-97649223D01*
X115312715Y-97831613D01*
X115433028Y-97997213D01*
X115577786Y-98141971D01*
X115687939Y-98222000D01*
X115743390Y-98262287D01*
X115859607Y-98321503D01*
X115925776Y-98355218D01*
X115925778Y-98355218D01*
X115925781Y-98355220D01*
X116024304Y-98387232D01*
X116120465Y-98418477D01*
X116221557Y-98434488D01*
X116322648Y-98450500D01*
X116322649Y-98450500D01*
X116527351Y-98450500D01*
X116527352Y-98450500D01*
X116729534Y-98418477D01*
X116924219Y-98355220D01*
X117106610Y-98262287D01*
X117210737Y-98186635D01*
X117272213Y-98141971D01*
X117272215Y-98141968D01*
X117272219Y-98141966D01*
X117416966Y-97997219D01*
X117416968Y-97997215D01*
X117416971Y-97997213D01*
X117532506Y-97838190D01*
X117537287Y-97831610D01*
X117630220Y-97649219D01*
X117693477Y-97454534D01*
X117725500Y-97252352D01*
X117725500Y-97047648D01*
X117693477Y-96845466D01*
X117687806Y-96828013D01*
X129049500Y-96828013D01*
X129049500Y-97016986D01*
X129079059Y-97203618D01*
X129137454Y-97383336D01*
X129173732Y-97454534D01*
X129223240Y-97551699D01*
X129334310Y-97704573D01*
X129467927Y-97838190D01*
X129620801Y-97949260D01*
X129700347Y-97989790D01*
X129789163Y-98035045D01*
X129789165Y-98035045D01*
X129789168Y-98035047D01*
X129849251Y-98054569D01*
X129906926Y-98094007D01*
X129934124Y-98158366D01*
X129922209Y-98227212D01*
X129874965Y-98278688D01*
X129849253Y-98290430D01*
X129830756Y-98296439D01*
X129789163Y-98309954D01*
X129620800Y-98395740D01*
X129589506Y-98418477D01*
X129467927Y-98506810D01*
X129467925Y-98506812D01*
X129467924Y-98506812D01*
X129334312Y-98640424D01*
X129334312Y-98640425D01*
X129334310Y-98640427D01*
X129286610Y-98706079D01*
X129223240Y-98793300D01*
X129137454Y-98961663D01*
X129079059Y-99141381D01*
X129049500Y-99328013D01*
X129049500Y-99516986D01*
X129079059Y-99703618D01*
X129137454Y-99883336D01*
X129223240Y-100051699D01*
X129334310Y-100204573D01*
X129467927Y-100338190D01*
X129582582Y-100421492D01*
X129620802Y-100449261D01*
X129695881Y-100487515D01*
X129746677Y-100535489D01*
X129763473Y-100603310D01*
X129740936Y-100669445D01*
X129686221Y-100712897D01*
X129639587Y-100722000D01*
X129305143Y-100722000D01*
X129305117Y-100722002D01*
X129280012Y-100724913D01*
X129280008Y-100724915D01*
X129177235Y-100770293D01*
X129097794Y-100849734D01*
X129052415Y-100952506D01*
X129052415Y-100952508D01*
X129049500Y-100977631D01*
X129049500Y-102867356D01*
X129049502Y-102867382D01*
X129052413Y-102892487D01*
X129052415Y-102892491D01*
X129097793Y-102995264D01*
X129097794Y-102995265D01*
X129177235Y-103074706D01*
X129280009Y-103120085D01*
X129305135Y-103123000D01*
X131194864Y-103122999D01*
X131194879Y-103122997D01*
X131194882Y-103122997D01*
X131219987Y-103120086D01*
X131219988Y-103120085D01*
X131219991Y-103120085D01*
X131322765Y-103074706D01*
X131402206Y-102995265D01*
X131447585Y-102892491D01*
X131450500Y-102867365D01*
X131450499Y-100977636D01*
X131449427Y-100968390D01*
X131447586Y-100952512D01*
X131447585Y-100952510D01*
X131447585Y-100952509D01*
X131402206Y-100849735D01*
X131322765Y-100770294D01*
X131322763Y-100770293D01*
X131219992Y-100724915D01*
X131194868Y-100722000D01*
X130860413Y-100722000D01*
X130793374Y-100702315D01*
X130747619Y-100649511D01*
X130737675Y-100580353D01*
X130766700Y-100516797D01*
X130804119Y-100487515D01*
X130879197Y-100449261D01*
X130879196Y-100449261D01*
X130879199Y-100449260D01*
X131032073Y-100338190D01*
X131165690Y-100204573D01*
X131276760Y-100051699D01*
X131362547Y-99883332D01*
X131420940Y-99703618D01*
X131435768Y-99609999D01*
X131450500Y-99516986D01*
X131450500Y-99328013D01*
X131420940Y-99141381D01*
X131393846Y-99057997D01*
X131362547Y-98961668D01*
X131362545Y-98961665D01*
X131362545Y-98961663D01*
X131276759Y-98793300D01*
X131275839Y-98792034D01*
X131165690Y-98640427D01*
X131032073Y-98506810D01*
X130879199Y-98395740D01*
X130710832Y-98309953D01*
X130650748Y-98290430D01*
X130593073Y-98250993D01*
X130565875Y-98186635D01*
X130577790Y-98117788D01*
X130625034Y-98066313D01*
X130650746Y-98054569D01*
X130710832Y-98035047D01*
X130879199Y-97949260D01*
X131032073Y-97838190D01*
X131165690Y-97704573D01*
X131276760Y-97551699D01*
X131362547Y-97383332D01*
X131420940Y-97203618D01*
X131450500Y-97016986D01*
X131450500Y-96828013D01*
X135049500Y-96828013D01*
X135049500Y-97016986D01*
X135079059Y-97203618D01*
X135137454Y-97383336D01*
X135173732Y-97454534D01*
X135223240Y-97551699D01*
X135334310Y-97704573D01*
X135467927Y-97838190D01*
X135620801Y-97949260D01*
X135700347Y-97989790D01*
X135789163Y-98035045D01*
X135789165Y-98035045D01*
X135789168Y-98035047D01*
X135849251Y-98054569D01*
X135906926Y-98094007D01*
X135934124Y-98158366D01*
X135922209Y-98227212D01*
X135874965Y-98278688D01*
X135849253Y-98290430D01*
X135830756Y-98296439D01*
X135789163Y-98309954D01*
X135620800Y-98395740D01*
X135589506Y-98418477D01*
X135467927Y-98506810D01*
X135467925Y-98506812D01*
X135467924Y-98506812D01*
X135334312Y-98640424D01*
X135334312Y-98640425D01*
X135334310Y-98640427D01*
X135286610Y-98706079D01*
X135223240Y-98793300D01*
X135137454Y-98961663D01*
X135079059Y-99141381D01*
X135049500Y-99328013D01*
X135049500Y-99516986D01*
X135079059Y-99703618D01*
X135137454Y-99883336D01*
X135223240Y-100051699D01*
X135334310Y-100204573D01*
X135467927Y-100338190D01*
X135620801Y-100449260D01*
X135695881Y-100487515D01*
X135789163Y-100535045D01*
X135789165Y-100535045D01*
X135789168Y-100535047D01*
X135849251Y-100554569D01*
X135906926Y-100594007D01*
X135934124Y-100658366D01*
X135922209Y-100727212D01*
X135874965Y-100778688D01*
X135849253Y-100790430D01*
X135830756Y-100796439D01*
X135789163Y-100809954D01*
X135620800Y-100895740D01*
X135542661Y-100952512D01*
X135467927Y-101006810D01*
X135467925Y-101006812D01*
X135467924Y-101006812D01*
X135334312Y-101140424D01*
X135334312Y-101140425D01*
X135334310Y-101140427D01*
X135302442Y-101184290D01*
X135223240Y-101293300D01*
X135137454Y-101461663D01*
X135079059Y-101641381D01*
X135049500Y-101828013D01*
X135049500Y-102016986D01*
X135079059Y-102203618D01*
X135137454Y-102383336D01*
X135183263Y-102473240D01*
X135223240Y-102551699D01*
X135334310Y-102704573D01*
X135467927Y-102838190D01*
X135620801Y-102949260D01*
X135700347Y-102989790D01*
X135789163Y-103035045D01*
X135789165Y-103035045D01*
X135789168Y-103035047D01*
X135885497Y-103066346D01*
X135968881Y-103093440D01*
X136155514Y-103123000D01*
X136155519Y-103123000D01*
X136344486Y-103123000D01*
X136531118Y-103093440D01*
X136710832Y-103035047D01*
X136879199Y-102949260D01*
X137032073Y-102838190D01*
X137165690Y-102704573D01*
X137276760Y-102551699D01*
X137361630Y-102385131D01*
X141549500Y-102385131D01*
X141549500Y-104274856D01*
X141549502Y-104274882D01*
X141552413Y-104299987D01*
X141552415Y-104299991D01*
X141597793Y-104402764D01*
X141597794Y-104402765D01*
X141677235Y-104482206D01*
X141780009Y-104527585D01*
X141805135Y-104530500D01*
X143694864Y-104530499D01*
X143694879Y-104530497D01*
X143694882Y-104530497D01*
X143719987Y-104527586D01*
X143719988Y-104527585D01*
X143719991Y-104527585D01*
X143740899Y-104518353D01*
X143746313Y-104515963D01*
X143774572Y-104503485D01*
X143822765Y-104482206D01*
X143902206Y-104402765D01*
X143947585Y-104299991D01*
X143950500Y-104274865D01*
X143950499Y-102385136D01*
X143950290Y-102383332D01*
X143947586Y-102360012D01*
X143947585Y-102360010D01*
X143947585Y-102360009D01*
X143902206Y-102257235D01*
X143822765Y-102177794D01*
X143758049Y-102149219D01*
X143719992Y-102132415D01*
X143694865Y-102129500D01*
X141805143Y-102129500D01*
X141805117Y-102129502D01*
X141780012Y-102132413D01*
X141780008Y-102132415D01*
X141677235Y-102177793D01*
X141597794Y-102257234D01*
X141552415Y-102360006D01*
X141552415Y-102360008D01*
X141549500Y-102385131D01*
X137361630Y-102385131D01*
X137362545Y-102383336D01*
X137362545Y-102383335D01*
X137362547Y-102383332D01*
X137420940Y-102203618D01*
X137429556Y-102149219D01*
X137450500Y-102016986D01*
X137450500Y-101828013D01*
X137420940Y-101641381D01*
X137362545Y-101461663D01*
X137276759Y-101293300D01*
X137165690Y-101140427D01*
X137032073Y-101006810D01*
X136879199Y-100895740D01*
X136710832Y-100809953D01*
X136650748Y-100790430D01*
X136593073Y-100750993D01*
X136565875Y-100686635D01*
X136577790Y-100617788D01*
X136625034Y-100566313D01*
X136650746Y-100554569D01*
X136710832Y-100535047D01*
X136879199Y-100449260D01*
X137032073Y-100338190D01*
X137165690Y-100204573D01*
X137276760Y-100051699D01*
X137362547Y-99883332D01*
X137420940Y-99703618D01*
X137431924Y-99634269D01*
X148029500Y-99634269D01*
X148029500Y-99865731D01*
X148047604Y-99980037D01*
X148065709Y-100094344D01*
X148137232Y-100314473D01*
X148137233Y-100314476D01*
X148203628Y-100444781D01*
X148240322Y-100516797D01*
X148242318Y-100520713D01*
X148378359Y-100707959D01*
X148378363Y-100707964D01*
X148542035Y-100871636D01*
X148542040Y-100871640D01*
X148653348Y-100952509D01*
X148729290Y-101007684D01*
X148864106Y-101076376D01*
X148935523Y-101112766D01*
X148935526Y-101112767D01*
X149020647Y-101140424D01*
X149155657Y-101184291D01*
X149384269Y-101220500D01*
X149384270Y-101220500D01*
X149615730Y-101220500D01*
X149615731Y-101220500D01*
X149844343Y-101184291D01*
X150064476Y-101112766D01*
X150270710Y-101007684D01*
X150457966Y-100871635D01*
X150621635Y-100707966D01*
X150757684Y-100520710D01*
X150862766Y-100314476D01*
X150934291Y-100094343D01*
X150970500Y-99865731D01*
X150970500Y-99634269D01*
X150934291Y-99405657D01*
X150862766Y-99185524D01*
X150862766Y-99185523D01*
X150826376Y-99114106D01*
X150757684Y-98979290D01*
X150622555Y-98793300D01*
X150621640Y-98792040D01*
X150621636Y-98792035D01*
X150457964Y-98628363D01*
X150457959Y-98628359D01*
X150270713Y-98492318D01*
X150270712Y-98492317D01*
X150270710Y-98492316D01*
X150188642Y-98450500D01*
X150064476Y-98387233D01*
X150064473Y-98387232D01*
X149844344Y-98315709D01*
X149730037Y-98297604D01*
X149615731Y-98279500D01*
X149384269Y-98279500D01*
X149315254Y-98290431D01*
X149155655Y-98315709D01*
X148935526Y-98387232D01*
X148935523Y-98387233D01*
X148729286Y-98492318D01*
X148542040Y-98628359D01*
X148542035Y-98628363D01*
X148378363Y-98792035D01*
X148378359Y-98792040D01*
X148242318Y-98979286D01*
X148137233Y-99185523D01*
X148137232Y-99185526D01*
X148065709Y-99405655D01*
X148065709Y-99405657D01*
X148029500Y-99634269D01*
X137431924Y-99634269D01*
X137435768Y-99609999D01*
X137450500Y-99516986D01*
X137450500Y-99328013D01*
X137420940Y-99141381D01*
X137393846Y-99057997D01*
X137362547Y-98961668D01*
X137362545Y-98961665D01*
X137362545Y-98961663D01*
X137276759Y-98793300D01*
X137275839Y-98792034D01*
X137165690Y-98640427D01*
X137032073Y-98506810D01*
X136879199Y-98395740D01*
X136710832Y-98309953D01*
X136650748Y-98290430D01*
X136593073Y-98250993D01*
X136565875Y-98186635D01*
X136577790Y-98117788D01*
X136625034Y-98066313D01*
X136650746Y-98054569D01*
X136710832Y-98035047D01*
X136879199Y-97949260D01*
X137032073Y-97838190D01*
X137165690Y-97704573D01*
X137276760Y-97551699D01*
X137362547Y-97383332D01*
X137420940Y-97203618D01*
X137450500Y-97016986D01*
X137450500Y-96828013D01*
X137420940Y-96641381D01*
X137364731Y-96468390D01*
X137362547Y-96461668D01*
X137362545Y-96461665D01*
X137362545Y-96461663D01*
X137297887Y-96334765D01*
X137276760Y-96293301D01*
X137276758Y-96293298D01*
X137276757Y-96293296D01*
X137252413Y-96259790D01*
X137252411Y-96259788D01*
X137231744Y-96231343D01*
X148725762Y-96231343D01*
X148759780Y-96250984D01*
X148759801Y-96250994D01*
X148962043Y-96334765D01*
X149173503Y-96391426D01*
X149390532Y-96419998D01*
X149390549Y-96420000D01*
X149609451Y-96420000D01*
X149609467Y-96419998D01*
X149826496Y-96391426D01*
X150037956Y-96334765D01*
X150240201Y-96250993D01*
X150240214Y-96250987D01*
X150274236Y-96231342D01*
X149500001Y-95457106D01*
X149500000Y-95457106D01*
X148725762Y-96231343D01*
X137231744Y-96231343D01*
X137165690Y-96140427D01*
X137032073Y-96006810D01*
X136879199Y-95895740D01*
X136710836Y-95809954D01*
X136531118Y-95751559D01*
X136344486Y-95722000D01*
X136344481Y-95722000D01*
X136155519Y-95722000D01*
X136155514Y-95722000D01*
X135968881Y-95751559D01*
X135789163Y-95809954D01*
X135620800Y-95895740D01*
X135553302Y-95944781D01*
X135467927Y-96006810D01*
X135467925Y-96006812D01*
X135467924Y-96006812D01*
X135334312Y-96140424D01*
X135334312Y-96140425D01*
X135334310Y-96140427D01*
X135321522Y-96158028D01*
X135223240Y-96293300D01*
X135137454Y-96461663D01*
X135079059Y-96641381D01*
X135049500Y-96828013D01*
X131450500Y-96828013D01*
X131420940Y-96641381D01*
X131364731Y-96468390D01*
X131362547Y-96461668D01*
X131362545Y-96461665D01*
X131362545Y-96461663D01*
X131297887Y-96334765D01*
X131276760Y-96293301D01*
X131165690Y-96140427D01*
X131032073Y-96006810D01*
X130879199Y-95895740D01*
X130710836Y-95809954D01*
X130531118Y-95751559D01*
X130344486Y-95722000D01*
X130344481Y-95722000D01*
X130155519Y-95722000D01*
X130155514Y-95722000D01*
X129968881Y-95751559D01*
X129789163Y-95809954D01*
X129620800Y-95895740D01*
X129553302Y-95944781D01*
X129467927Y-96006810D01*
X129467925Y-96006812D01*
X129467924Y-96006812D01*
X129334312Y-96140424D01*
X129334312Y-96140425D01*
X129334310Y-96140427D01*
X129321522Y-96158028D01*
X129223240Y-96293300D01*
X129137454Y-96461663D01*
X129079059Y-96641381D01*
X129049500Y-96828013D01*
X117687806Y-96828013D01*
X117630220Y-96650781D01*
X117630218Y-96650778D01*
X117630218Y-96650776D01*
X117596503Y-96584607D01*
X117537287Y-96468390D01*
X117502130Y-96420000D01*
X117416971Y-96302786D01*
X117272213Y-96158028D01*
X117106613Y-96037715D01*
X117106612Y-96037714D01*
X117106610Y-96037713D01*
X117049653Y-96008691D01*
X116924223Y-95944781D01*
X116729534Y-95881522D01*
X116554995Y-95853878D01*
X116527352Y-95849500D01*
X116322648Y-95849500D01*
X116298329Y-95853351D01*
X116120465Y-95881522D01*
X115925776Y-95944781D01*
X115743386Y-96037715D01*
X115577786Y-96158028D01*
X115433028Y-96302786D01*
X115312715Y-96468386D01*
X115219781Y-96650776D01*
X115156522Y-96845465D01*
X115124500Y-97047648D01*
X111225500Y-97047648D01*
X111193477Y-96845466D01*
X111130220Y-96650781D01*
X111130218Y-96650778D01*
X111130218Y-96650776D01*
X111096503Y-96584607D01*
X111037287Y-96468390D01*
X111002130Y-96420000D01*
X110916971Y-96302786D01*
X110772213Y-96158028D01*
X110606613Y-96037715D01*
X110606612Y-96037714D01*
X110606610Y-96037713D01*
X110549653Y-96008691D01*
X110424223Y-95944781D01*
X110229534Y-95881522D01*
X110054995Y-95853878D01*
X110027352Y-95849500D01*
X109822648Y-95849500D01*
X109798329Y-95853351D01*
X109620465Y-95881522D01*
X109425776Y-95944781D01*
X109243386Y-96037715D01*
X109077786Y-96158028D01*
X108933028Y-96302786D01*
X108812715Y-96468386D01*
X108719781Y-96650776D01*
X108656522Y-96845465D01*
X108624500Y-97047648D01*
X105000000Y-97047648D01*
X105000000Y-94640548D01*
X147830000Y-94640548D01*
X147830000Y-94859451D01*
X147830001Y-94859467D01*
X147858573Y-95076496D01*
X147915234Y-95287956D01*
X147999002Y-95490192D01*
X147999006Y-95490200D01*
X148018656Y-95524235D01*
X148792893Y-94750000D01*
X148792893Y-94749999D01*
X148728875Y-94685981D01*
X148850000Y-94685981D01*
X148850000Y-94814019D01*
X148874979Y-94939598D01*
X148923978Y-95057890D01*
X148995112Y-95164351D01*
X149085649Y-95254888D01*
X149192110Y-95326022D01*
X149310402Y-95375021D01*
X149435981Y-95400000D01*
X149564019Y-95400000D01*
X149689598Y-95375021D01*
X149807890Y-95326022D01*
X149914351Y-95254888D01*
X150004888Y-95164351D01*
X150076022Y-95057890D01*
X150125021Y-94939598D01*
X150150000Y-94814019D01*
X150150000Y-94750000D01*
X150207106Y-94750000D01*
X150981342Y-95524235D01*
X151000987Y-95490214D01*
X151000993Y-95490201D01*
X151084765Y-95287956D01*
X151141426Y-95076496D01*
X151169998Y-94859467D01*
X151170000Y-94859451D01*
X151170000Y-94640548D01*
X151169998Y-94640532D01*
X151141426Y-94423503D01*
X151084765Y-94212043D01*
X151000994Y-94009801D01*
X151000984Y-94009780D01*
X150981343Y-93975763D01*
X150981343Y-93975762D01*
X150207106Y-94750000D01*
X150150000Y-94750000D01*
X150150000Y-94685981D01*
X150125021Y-94560402D01*
X150076022Y-94442110D01*
X150004888Y-94335649D01*
X149914351Y-94245112D01*
X149807890Y-94173978D01*
X149689598Y-94124979D01*
X149564019Y-94100000D01*
X149435981Y-94100000D01*
X149310402Y-94124979D01*
X149192110Y-94173978D01*
X149085649Y-94245112D01*
X148995112Y-94335649D01*
X148923978Y-94442110D01*
X148874979Y-94560402D01*
X148850000Y-94685981D01*
X148728875Y-94685981D01*
X148018656Y-93975762D01*
X148018656Y-93975763D01*
X147999008Y-94009794D01*
X147999003Y-94009804D01*
X147915234Y-94212043D01*
X147858573Y-94423503D01*
X147830001Y-94640532D01*
X147830000Y-94640548D01*
X105000000Y-94640548D01*
X105000000Y-92395131D01*
X122549500Y-92395131D01*
X122549500Y-94284856D01*
X122549502Y-94284882D01*
X122552413Y-94309987D01*
X122552415Y-94309991D01*
X122597793Y-94412764D01*
X122597794Y-94412765D01*
X122677235Y-94492206D01*
X122780009Y-94537585D01*
X122805135Y-94540500D01*
X124694864Y-94540499D01*
X124694879Y-94540497D01*
X124694882Y-94540497D01*
X124719986Y-94537586D01*
X124719987Y-94537585D01*
X124719991Y-94537585D01*
X124822765Y-94492206D01*
X124902206Y-94412765D01*
X124947585Y-94309991D01*
X124950500Y-94284865D01*
X124950499Y-93075513D01*
X141549500Y-93075513D01*
X141549500Y-93264486D01*
X141579059Y-93451118D01*
X141637454Y-93630836D01*
X141723240Y-93799199D01*
X141834310Y-93952073D01*
X141967927Y-94085690D01*
X142120801Y-94196760D01*
X142150796Y-94212043D01*
X142289163Y-94282545D01*
X142289165Y-94282545D01*
X142289168Y-94282547D01*
X142373638Y-94309993D01*
X142468881Y-94340940D01*
X142655514Y-94370500D01*
X142655519Y-94370500D01*
X142844486Y-94370500D01*
X143031118Y-94340940D01*
X143047402Y-94335649D01*
X143210832Y-94282547D01*
X143379199Y-94196760D01*
X143532073Y-94085690D01*
X143665690Y-93952073D01*
X143776760Y-93799199D01*
X143862547Y-93630832D01*
X143920940Y-93451118D01*
X143945873Y-93293700D01*
X143949840Y-93268656D01*
X148725762Y-93268656D01*
X149500000Y-94042893D01*
X149500001Y-94042893D01*
X150274236Y-93268656D01*
X150240200Y-93249006D01*
X150240192Y-93249002D01*
X150037956Y-93165234D01*
X149826496Y-93108573D01*
X149609467Y-93080001D01*
X149609451Y-93080000D01*
X149390549Y-93080000D01*
X149390532Y-93080001D01*
X149173503Y-93108573D01*
X148962043Y-93165234D01*
X148759804Y-93249003D01*
X148759794Y-93249008D01*
X148725763Y-93268656D01*
X148725762Y-93268656D01*
X143949840Y-93268656D01*
X143950500Y-93264486D01*
X143950500Y-93075513D01*
X143920940Y-92888881D01*
X143862545Y-92709163D01*
X143776759Y-92540800D01*
X143665690Y-92387927D01*
X143532073Y-92254310D01*
X143379199Y-92143240D01*
X143371859Y-92139500D01*
X143210836Y-92057454D01*
X143031118Y-91999059D01*
X142844486Y-91969500D01*
X142844481Y-91969500D01*
X142655519Y-91969500D01*
X142655514Y-91969500D01*
X142468881Y-91999059D01*
X142289163Y-92057454D01*
X142120800Y-92143240D01*
X142059479Y-92187793D01*
X141967927Y-92254310D01*
X141967925Y-92254312D01*
X141967924Y-92254312D01*
X141834312Y-92387924D01*
X141834312Y-92387925D01*
X141834310Y-92387927D01*
X141786610Y-92453579D01*
X141723240Y-92540800D01*
X141637454Y-92709163D01*
X141579059Y-92888881D01*
X141549500Y-93075513D01*
X124950499Y-93075513D01*
X124950499Y-92395136D01*
X124949663Y-92387924D01*
X124947586Y-92370012D01*
X124947585Y-92370010D01*
X124947585Y-92370009D01*
X124902206Y-92267235D01*
X124822765Y-92187794D01*
X124822763Y-92187793D01*
X124719992Y-92142415D01*
X124694865Y-92139500D01*
X122805143Y-92139500D01*
X122805117Y-92139502D01*
X122780012Y-92142413D01*
X122780008Y-92142415D01*
X122677235Y-92187793D01*
X122597794Y-92267234D01*
X122552415Y-92370006D01*
X122552415Y-92370008D01*
X122549500Y-92395131D01*
X105000000Y-92395131D01*
X105000000Y-81547648D01*
X107649500Y-81547648D01*
X107649500Y-81752351D01*
X107681522Y-81954534D01*
X107744781Y-82149223D01*
X107837715Y-82331613D01*
X107958028Y-82497213D01*
X108102786Y-82641971D01*
X108257749Y-82754556D01*
X108268390Y-82762287D01*
X108384607Y-82821503D01*
X108450776Y-82855218D01*
X108450778Y-82855218D01*
X108450781Y-82855220D01*
X108555137Y-82889127D01*
X108645465Y-82918477D01*
X108746557Y-82934488D01*
X108847648Y-82950500D01*
X108847649Y-82950500D01*
X109052351Y-82950500D01*
X109052352Y-82950500D01*
X109254534Y-82918477D01*
X109449219Y-82855220D01*
X109631610Y-82762287D01*
X109724590Y-82694732D01*
X109797213Y-82641971D01*
X109797215Y-82641968D01*
X109797219Y-82641966D01*
X109941966Y-82497219D01*
X109941968Y-82497215D01*
X109941971Y-82497213D01*
X109994732Y-82424590D01*
X110062287Y-82331610D01*
X110155220Y-82149219D01*
X110218477Y-81954534D01*
X110250500Y-81752352D01*
X110250500Y-81547648D01*
X116149500Y-81547648D01*
X116149500Y-81752351D01*
X116181522Y-81954534D01*
X116244781Y-82149223D01*
X116337715Y-82331613D01*
X116458028Y-82497213D01*
X116602786Y-82641971D01*
X116757749Y-82754556D01*
X116768390Y-82762287D01*
X116884607Y-82821503D01*
X116950776Y-82855218D01*
X116950778Y-82855218D01*
X116950781Y-82855220D01*
X117055137Y-82889127D01*
X117145465Y-82918477D01*
X117246557Y-82934488D01*
X117347648Y-82950500D01*
X117347649Y-82950500D01*
X117552351Y-82950500D01*
X117552352Y-82950500D01*
X117754534Y-82918477D01*
X117949219Y-82855220D01*
X118131610Y-82762287D01*
X118224590Y-82694732D01*
X118297213Y-82641971D01*
X118297215Y-82641968D01*
X118297219Y-82641966D01*
X118441966Y-82497219D01*
X118441968Y-82497215D01*
X118441971Y-82497213D01*
X118494732Y-82424590D01*
X118562287Y-82331610D01*
X118655220Y-82149219D01*
X118718477Y-81954534D01*
X118750500Y-81752352D01*
X118750500Y-81547648D01*
X118718477Y-81345466D01*
X118655220Y-81150781D01*
X118655218Y-81150778D01*
X118655218Y-81150776D01*
X118621503Y-81084607D01*
X118562287Y-80968390D01*
X118554556Y-80957749D01*
X118441971Y-80802786D01*
X118297213Y-80658028D01*
X118131613Y-80537715D01*
X118131612Y-80537714D01*
X118131610Y-80537713D01*
X118074653Y-80508691D01*
X117949223Y-80444781D01*
X117754534Y-80381522D01*
X117579995Y-80353878D01*
X117552352Y-80349500D01*
X117347648Y-80349500D01*
X117323329Y-80353351D01*
X117145465Y-80381522D01*
X116950776Y-80444781D01*
X116768386Y-80537715D01*
X116602786Y-80658028D01*
X116458028Y-80802786D01*
X116337715Y-80968386D01*
X116244781Y-81150776D01*
X116181522Y-81345465D01*
X116149500Y-81547648D01*
X110250500Y-81547648D01*
X110218477Y-81345466D01*
X110155220Y-81150781D01*
X110155218Y-81150778D01*
X110155218Y-81150776D01*
X110121503Y-81084607D01*
X110062287Y-80968390D01*
X110054556Y-80957749D01*
X109941971Y-80802786D01*
X109797213Y-80658028D01*
X109631613Y-80537715D01*
X109631612Y-80537714D01*
X109631610Y-80537713D01*
X109574653Y-80508691D01*
X109449223Y-80444781D01*
X109254534Y-80381522D01*
X109079995Y-80353878D01*
X109052352Y-80349500D01*
X108847648Y-80349500D01*
X108823329Y-80353351D01*
X108645465Y-80381522D01*
X108450776Y-80444781D01*
X108268386Y-80537715D01*
X108102786Y-80658028D01*
X107958028Y-80802786D01*
X107837715Y-80968386D01*
X107744781Y-81150776D01*
X107681522Y-81345465D01*
X107649500Y-81547648D01*
X105000000Y-81547648D01*
X105000000Y-77047648D01*
X107649500Y-77047648D01*
X107649500Y-77252351D01*
X107681522Y-77454534D01*
X107744781Y-77649223D01*
X107837715Y-77831613D01*
X107958028Y-77997213D01*
X108102786Y-78141971D01*
X108257749Y-78254556D01*
X108268390Y-78262287D01*
X108384607Y-78321503D01*
X108450776Y-78355218D01*
X108450778Y-78355218D01*
X108450781Y-78355220D01*
X108555137Y-78389127D01*
X108645465Y-78418477D01*
X108746557Y-78434488D01*
X108847648Y-78450500D01*
X108847649Y-78450500D01*
X109052351Y-78450500D01*
X109052352Y-78450500D01*
X109254534Y-78418477D01*
X109449219Y-78355220D01*
X109631610Y-78262287D01*
X109724590Y-78194732D01*
X109797213Y-78141971D01*
X109797215Y-78141968D01*
X109797219Y-78141966D01*
X109941966Y-77997219D01*
X109941968Y-77997215D01*
X109941971Y-77997213D01*
X110014777Y-77897002D01*
X110062287Y-77831610D01*
X110155220Y-77649219D01*
X110218477Y-77454534D01*
X110250500Y-77252352D01*
X110250500Y-77047648D01*
X116149500Y-77047648D01*
X116149500Y-77252351D01*
X116181522Y-77454534D01*
X116244781Y-77649223D01*
X116337715Y-77831613D01*
X116458028Y-77997213D01*
X116602786Y-78141971D01*
X116757749Y-78254556D01*
X116768390Y-78262287D01*
X116884607Y-78321503D01*
X116950776Y-78355218D01*
X116950778Y-78355218D01*
X116950781Y-78355220D01*
X117055137Y-78389127D01*
X117145465Y-78418477D01*
X117246557Y-78434488D01*
X117347648Y-78450500D01*
X117347649Y-78450500D01*
X117552351Y-78450500D01*
X117552352Y-78450500D01*
X117754534Y-78418477D01*
X117949219Y-78355220D01*
X118131610Y-78262287D01*
X118224590Y-78194732D01*
X118297213Y-78141971D01*
X118297215Y-78141968D01*
X118297219Y-78141966D01*
X118441966Y-77997219D01*
X118441968Y-77997215D01*
X118441971Y-77997213D01*
X118514777Y-77897002D01*
X118562287Y-77831610D01*
X118655220Y-77649219D01*
X118718477Y-77454534D01*
X118750500Y-77252352D01*
X118750500Y-77047648D01*
X118718477Y-76845466D01*
X118715906Y-76837554D01*
X118674299Y-76709501D01*
X118655220Y-76650781D01*
X118655218Y-76650778D01*
X118655218Y-76650776D01*
X118610490Y-76562994D01*
X118562287Y-76468390D01*
X118513788Y-76401636D01*
X118441971Y-76302786D01*
X118297213Y-76158028D01*
X118131613Y-76037715D01*
X118131612Y-76037714D01*
X118131610Y-76037713D01*
X118074653Y-76008691D01*
X117949223Y-75944781D01*
X117754534Y-75881522D01*
X117579995Y-75853878D01*
X117552352Y-75849500D01*
X117347648Y-75849500D01*
X117323329Y-75853351D01*
X117145465Y-75881522D01*
X116950776Y-75944781D01*
X116768386Y-76037715D01*
X116602786Y-76158028D01*
X116458028Y-76302786D01*
X116337715Y-76468386D01*
X116244781Y-76650776D01*
X116181522Y-76845465D01*
X116149500Y-77047648D01*
X110250500Y-77047648D01*
X110218477Y-76845466D01*
X110215906Y-76837554D01*
X110174299Y-76709501D01*
X110155220Y-76650781D01*
X110155218Y-76650778D01*
X110155218Y-76650776D01*
X110110490Y-76562994D01*
X110062287Y-76468390D01*
X110013788Y-76401636D01*
X109941971Y-76302786D01*
X109797213Y-76158028D01*
X109631613Y-76037715D01*
X109631612Y-76037714D01*
X109631610Y-76037713D01*
X109574653Y-76008691D01*
X109449223Y-75944781D01*
X109254534Y-75881522D01*
X109079995Y-75853878D01*
X109052352Y-75849500D01*
X108847648Y-75849500D01*
X108823329Y-75853351D01*
X108645465Y-75881522D01*
X108450776Y-75944781D01*
X108268386Y-76037715D01*
X108102786Y-76158028D01*
X107958028Y-76302786D01*
X107837715Y-76468386D01*
X107744781Y-76650776D01*
X107681522Y-76845465D01*
X107649500Y-77047648D01*
X105000000Y-77047648D01*
X105000000Y-66624500D01*
X105019685Y-66557461D01*
X105072489Y-66511706D01*
X105124000Y-66500500D01*
X125626000Y-66500500D01*
X125693039Y-66520185D01*
G37*
%TD.AperFunction*%
%TD*%
M02*
